<svg width="960" height="720" xmlns="http://www.w3.org/2000/svg" xmlns:xlink="http://www.w3.org/1999/xlink" overflow="hidden"><defs><clipPath id="clip0"><rect x="0" y="0" width="960" height="720"/></clipPath></defs><g clip-path="url(#clip0)"><rect x="0" y="0" width="960" height="720" fill="#FFFFFF"/><rect x="555.5" y="114.5" width="145" height="102" stroke="#000000" stroke-width="1.33333" stroke-miterlimit="8" fill="#FF0000" fill-opacity="0.25098"/><text font-family="Calibri,Calibri_MSFontService,sans-serif" font-weight="400" font-size="17" transform="translate(593.364 133)">Low<tspan font-size="17" x="28.7667" y="0">-</tspan><tspan font-size="17" x="34.1" y="0">Pass </tspan><tspan font-size="17" x="-30.1333" y="21">Anti</tspan><tspan font-size="17" x="-1.29333" y="21">-</tspan><tspan font-size="17" x="4.04004" y="21">Aliasing Filter</tspan></text><path d="M0 0 29.0403 0.192756" stroke="#0070C0" stroke-width="1.33333" stroke-miterlimit="8" fill="none" fill-rule="evenodd" transform="matrix(1 0 0 -1 589.5 177.693)"/><path d="M629.5 183.5 645.783 207.926" stroke="#0070C0" stroke-width="1.33333" stroke-miterlimit="8" fill="none" fill-rule="evenodd"/><path d="M0 0 0.000209974 39.2551" stroke="#000000" stroke-width="1.33333" stroke-miterlimit="8" fill="none" fill-rule="evenodd" transform="matrix(1 0 0 -1 589.5 208.755)"/><path d="M588.5 208.5 669.151 208.5" stroke="#000000" stroke-width="1.33333" stroke-miterlimit="8" fill="none" fill-rule="evenodd"/><path d="M618.5 177.5C623.21 177.5 627.604 179.868 630.194 183.802" stroke="#0070C0" stroke-width="1.33333" stroke-miterlimit="8" fill="none" fill-rule="evenodd"/><text font-family="Calibri,Calibri_MSFontService,sans-serif" font-weight="400" font-size="16" transform="translate(305.759 245)">Angular Rate<tspan font-size="16" x="0" y="19">Linear Accel </tspan><tspan font-size="16" x="0" y="38">(@</tspan><tspan font-size="16" x="19.1667" y="38">startupImuDtMs</tspan><tspan font-size="16" x="125.96" y="38">)</tspan><tspan font-size="16" x="181.867" y="186">Delta Theta</tspan><tspan font-size="16" x="181.867" y="205">Delta Velocity </tspan><tspan font-size="16" x="181.867" y="224">(@</tspan><tspan font-size="16" x="201.033" y="224">startupNavDtMs</tspan><tspan font-size="16" x="307.56" y="224">)</tspan></text><path d="M0-1.33333 45.6928-1.33333 45.6928 0.0576378 44.3595-1.2757 76.7188-1.2757 76.7188 1.39097 43.0261 1.39097 43.0261 0 44.3595 1.33333 0 1.33333ZM75.3855-6.60903 88.7188 0.0576378 75.3855 6.7243Z" transform="matrix(1.83697e-16 1 1 -1.83697e-16 628.5 216.5)"/><path d="M517.5 557.5C517.5 553.634 520.634 550.5 524.5 550.5L732.5 550.5C736.366 550.5 739.5 553.634 739.5 557.5L739.5 585.5C739.5 589.366 736.366 592.5 732.5 592.5L524.5 592.5C520.634 592.5 517.5 589.366 517.5 585.5Z" stroke="#000000" stroke-width="1.33333" stroke-miterlimit="8" fill="#F8CBAD" fill-rule="evenodd"/><text font-family="Calibri,Calibri_MSFontService,sans-serif" font-weight="400" font-size="19" transform="translate(588.051 576)">DID_PIMU</text><path d="M629.896 408.5 629.896 480.836 628.5 480.836 629.833 479.503 629.833 538.505 627.167 538.505 627.167 478.169 628.563 478.169 627.229 479.503 627.229 408.5ZM635.167 537.172 628.5 550.505 621.833 537.172Z"/><rect x="317.5" y="404.5" width="145" height="102" stroke="#000000" stroke-width="1.33333" stroke-miterlimit="8" fill="#2E75B6" fill-opacity="0.25098"/><text font-family="Calibri,Calibri_MSFontService,sans-serif" font-weight="400" font-size="19" transform="translate(332.087 423)">Derivative over<tspan font-size="19" x="1.60001" y="23">Integral period</tspan><tspan font-family="Cambria Math,Cambria Math_MSFontService,sans-serif" font-size="16" x="47.3816" y="49">âˆ†</tspan><tspan font-family="Cambria Math,Cambria Math_MSFontService,sans-serif" font-size="16" x="56.8816" y="49">ğ‘¢</tspan><tspan font-family="Cambria Math,Cambria Math_MSFontService,sans-serif" font-size="16" x="48.8016" y="72">âˆ†</tspan><tspan font-family="Cambria Math,Cambria Math_MSFontService,sans-serif" font-size="16" x="58.3016" y="72">ğ‘¡</tspan></text><path d="M379.342 478.945 388.842 478.945 398.342 478.945 398.342 479.945 388.842 479.945 379.342 479.945Z" fill-rule="evenodd"/><path d="M281.5 557.5C281.5 553.634 284.634 550.5 288.5 550.5L491.5 550.5C495.366 550.5 498.5 553.634 498.5 557.5L498.5 585.5C498.5 589.366 495.366 592.5 491.5 592.5L288.5 592.5C284.634 592.5 281.5 589.366 281.5 585.5Z" stroke="#000000" stroke-width="1.33333" stroke-miterlimit="8" fill="#F8CBAD" fill-rule="evenodd"/><text font-family="Calibri,Calibri_MSFontService,sans-serif" font-weight="400" font-size="19" transform="translate(354.665 576)">DID_IMU</text><path d="M40.5001 556.5C40.5001 552.634 43.6341 549.5 47.5002 549.5L255.5 549.5C259.366 549.5 262.5 552.634 262.5 556.5L262.5 584.5C262.5 588.366 259.366 591.5 255.5 591.5L47.5002 591.5C43.6341 591.5 40.5001 588.366 40.5001 584.5Z" stroke="#000000" stroke-width="1.33333" stroke-miterlimit="8" fill="#F8CBAD" fill-rule="evenodd"/><text font-family="Calibri,Calibri_MSFontService,sans-serif" font-weight="400" font-size="19" transform="translate(93.3085 576)">DID_IMU_RAW</text><path d="M0-1.33333 81.8112-1.33333 81.8112 0.133018 80.4779-1.20031 148.956-1.20031 148.956 1.46635 79.1446 1.46635 79.1446 0 80.4779 1.33333 0 1.33333ZM147.622-6.53365 160.956 0.133018 147.622 6.79969Z" transform="matrix(-1 1.22465e-16 1.22465e-16 1 623.456 455.5)"/><path d="M390.979 506.5 390.979 529.664 389.5 529.664 390.833 528.33 390.833 538.16 388.167 538.16 388.167 526.997 389.645 526.997 388.312 528.33 388.312 506.5ZM396.167 536.827 389.5 550.16 382.833 536.827Z"/><path d="M623.5 455C623.5 452.515 625.739 450.5 628.5 450.5 631.261 450.5 633.5 452.515 633.5 455 633.5 457.485 631.261 459.5 628.5 459.5 625.739 459.5 623.5 457.485 623.5 455Z" stroke="#000000" stroke-width="1.33333" stroke-miterlimit="8" fill-rule="evenodd"/><path d="M0-1.33333 472.678-1.33333 472.678 268.365 470.011 268.365 470.011 0 471.345 1.33333 0 1.33333ZM478.011 267.032 471.345 280.365 464.678 267.032Z" transform="matrix(-1 1.22465e-16 1.22465e-16 1 622.845 269.5)"/><path d="M623.5 269.5C623.5 266.739 625.739 264.5 628.5 264.5 631.261 264.5 633.5 266.739 633.5 269.5 633.5 272.261 631.261 274.5 628.5 274.5 625.739 274.5 623.5 272.261 623.5 269.5Z" stroke="#000000" stroke-width="1.33333" stroke-miterlimit="8" fill-rule="evenodd"/><rect x="555.5" y="62.5001" width="145" height="52" stroke="#000000" stroke-width="1.33333" stroke-miterlimit="8" fill="#C5E0B4"/><text font-family="Calibri,Calibri_MSFontService,sans-serif" font-weight="400" font-size="21" transform="translate(609.14 95)">IMU</text><rect x="556.5" y="305.5" width="144" height="103" stroke="#000000" stroke-width="1.33333" stroke-miterlimit="8" fill="#2E75B6" fill-opacity="0.25098"/><text font-family="Calibri,Calibri_MSFontService,sans-serif" font-weight="400" font-size="19" transform="translate(578.035 325)">Conning and <tspan font-size="19" x="-13.96" y="23">Sculling Integrals</tspan><tspan font-family="Cambria Math,Cambria Math_MSFontService,sans-serif" font-size="16" x="36.4498" y="46">1</tspan><tspan font-family="Cambria Math,Cambria Math_MSFontService,sans-serif" font-size="16" x="37.0365" y="69">ğ‘ </tspan></text><path d="M614.858 378.6 623.858 378.6 623.858 379.6 614.858 379.6Z" fill-rule="evenodd"/><text font-family="Cambria Math,Cambria Math_MSFontService,sans-serif" font-weight="400" font-size="16" transform="translate(624.652 384)"></text><path d="M10.9609-19.8438 10.0938-19.8438C10.0781-20.1302 10.0156-20.3477 9.90625-20.4961 9.79688-20.6445 9.59635-20.7188 9.30469-20.7188 8.57552-20.7188 8.04427-19.8984 7.71094-18.2578 7.3776-16.6172 7.07812-12.0885 6.8125-4.67188 6.54688 2 6.02995 6.5599 5.26172 9.00781 4.49349 11.4557 3.45573 12.6797 2.14844 12.6797 1.88281 12.6797 1.63802 12.6589 1.41406 12.6172 1.1901 12.5755 0.992187 12.5078 0.820312 12.4141L0.96875 10.7031 1.75781 10.7031C1.83594 11.0469 1.9375 11.2878 2.0625 11.4258 2.1875 11.5638 2.3776 11.6328 2.63281 11.6328 3.10156 11.6328 3.55208 10.8229 3.98438 9.20312 4.41667 7.58333 4.75521 3.34635 5-3.50781 5.30208-10.9453 5.78776-15.8424 6.45703-18.1992 7.1263-20.556 8.23438-21.7344 9.78125-21.7344 10.0573-21.7344 10.3086-21.7096 10.5352-21.6602 10.7617-21.6107 10.9531-21.5495 11.1094-21.4766Z" transform="translate(629.485 384)"/><text font-family="Cambria Math,Cambria Math_MSFontService,sans-serif" font-weight="400" font-size="16" transform="translate(645.058 384)"></text><path d="M0-1.33333 25.5149-1.33333 25.5149 0.0986877 24.1815-1.23465 48.363-1.23465 48.363 1.43202 22.8482 1.43202 22.8482 0 24.1815 1.33333 0 1.33333ZM48.363-6.56798 55.0297 0.0986877 48.363 6.76535 41.6964 0.0986877Z" fill="#7F6000" transform="matrix(-1 1.22465e-16 1.22465e-16 1 748.863 88.5001)"/><path d="M0-1.33333 25.6854-1.33333 25.6854 0.106142 24.352-1.22719 48.7039-1.22719 48.7039 1.43948 23.0187 1.43948 23.0187 0 24.352 1.33333 0 1.33333ZM48.7039-6.56052 55.3706 0.106142 48.7039 6.77281 42.0373 0.106142Z" fill="#7F6000" transform="matrix(-1 1.22465e-16 1.22465e-16 1 749.204 356.5)"/><rect x="748.5" y="59.5001" width="154" height="58" stroke="#000000" stroke-width="1.33333" stroke-miterlimit="8" fill="#FFE699"/><text font-family="Calibri,Calibri_MSFontService,sans-serif" font-weight="400" font-size="16" transform="translate(757.959 74)">Parameter:<tspan font-size="16" x="0" y="19">DID_FLASH_CONFIG.</tspan><tspan font-weight="700" font-size="16" x="0" y="38">startupImuDtMs</tspan><tspan font-size="16" x="-9.60004" y="61">This parameter sets the </tspan><tspan font-size="16" x="-9.60004" y="80">IMU sample period, </tspan><tspan font-size="16" x="-9.60004" y="99">default of 1ms (1KHz).</tspan><tspan font-size="16" x="-474.775" y="536">Anti</tspan><tspan font-size="16" x="-448.255" y="536">-</tspan><tspan font-size="16" x="-443.421" y="536">aliased moving average over </tspan><tspan font-size="16" x="-474.775" y="555">integration period with non</tspan><tspan font-size="16" x="-296.401" y="555">-</tspan><tspan font-size="16" x="-474.775" y="574">overlapping intervals.</tspan><tspan font-size="16" x="-474.775" y="594">(@</tspan><tspan font-size="16" x="-455.608" y="594">startupNavDtMs</tspan>)<tspan font-size="16" x="-717.481" y="536">Direct from IMU Low</tspan>-Pass Filter<tspan font-size="16" x="-717.481" y="555">(@</tspan><tspan font-size="16" x="-698.314" y="555">startupImuDtMs</tspan>)</text><rect x="749.5" y="328.5" width="154" height="57" stroke="#000000" stroke-width="1.33333" stroke-miterlimit="8" fill="#FFE699"/><text font-family="Calibri,Calibri_MSFontService,sans-serif" font-weight="400" font-size="16" transform="translate(758.359 343)">Parameter:<tspan font-size="16" x="0" y="19">DID_FLASH_CONFIG.</tspan><tspan font-weight="700" font-size="16" x="0" y="38">startupNavDtMs</tspan><tspan font-size="16" x="-9.59998" y="61">This parameter sets the </tspan><tspan font-size="16" x="-9.59998" y="80">Conning and Sculling </tspan><tspan font-size="16" x="-9.59998" y="99">integration period and </tspan><tspan font-size="16" x="-9.59998" y="119">NAV filter update period. </tspan><tspan font-size="16" x="-9.59998" y="138">Default is 4ms (250KHz)</tspan></text><path d="M0-1.33333 25.5143-1.33333 25.5143 77.2579 24.181 75.9246 48.362 75.9246 48.362 78.5913 22.8477 78.5913 22.8477 0 24.181 1.33333 0 1.33333ZM48.362 70.5913 55.0287 77.2579 48.362 83.9246 41.6953 77.2579Z" fill="#7F6000" transform="matrix(-1 1.22465e-16 1.22465e-16 1 748.862 88.5001)"/><text font-family="Calibri,Calibri_MSFontService,sans-serif" font-weight="400" font-size="16" transform="translate(364.835 133)">The anti<tspan font-size="16" x="52.6867" y="0">-</tspan><tspan font-size="16" x="57.52" y="0">aliasing filter </tspan><tspan font-size="16" x="0" y="19">bandwidth is automatically </tspan><tspan font-size="16" x="0" y="38">set to less than half the </tspan><tspan font-size="16" x="0" y="58">Nyquist frequency:</tspan><tspan font-size="14" x="24.4133" y="75">&lt; 250/</tspan><tspan font-size="14" x="61.4133" y="75">startupImuDtMs</tspan><tspan font-size="16" x="152.083" y="477">(@</tspan><tspan font-size="16" x="171.25" y="477">startupNavDtMs</tspan>)</text></g></svg>