<?xml version="1.0" encoding="UTF-8" standalone="no"?>
<!-- Created with Inkscape (http://www.inkscape.org/) -->

<svg
   version="1.1"
   id="svg1"
   width="416"
   height="756"
   viewBox="0 0 462.22222 840.00076"
   sodipodi:docname="ik1_pinout.svg"
   inkscape:version="1.3.2 (091e20e, 2023-11-25, custom)"
   xmlns:inkscape="http://www.inkscape.org/namespaces/inkscape"
   xmlns:sodipodi="http://sodipodi.sourceforge.net/DTD/sodipodi-0.dtd"
   xmlns="http://www.w3.org/2000/svg"
   xmlns:svg="http://www.w3.org/2000/svg">
  <defs
     id="defs1" />
  <sodipodi:namedview
     id="namedview1"
     pagecolor="#ffffff"
     bordercolor="#000000"
     borderopacity="0.25"
     inkscape:showpageshadow="2"
     inkscape:pageopacity="0.0"
     inkscape:pagecheckerboard="0"
     inkscape:deskcolor="#d1d1d1"
     showgrid="false"
     inkscape:zoom="0.77209821"
     inkscape:cx="15.542064"
     inkscape:cy="441.00607"
     inkscape:window-width="1920"
     inkscape:window-height="1129"
     inkscape:window-x="1001"
     inkscape:window-y="2152"
     inkscape:window-maximized="1"
     inkscape:current-layer="g1">
    <inkscape:page
       x="0"
       y="0"
       inkscape:label="1"
       id="page1"
       width="462.22223"
       height="840.00073"
       margin="0"
       bleed="0" />
  </sodipodi:namedview>
  <g
     id="g1"
     inkscape:groupmode="layer"
     inkscape:label="1"
     transform="translate(-254.2015,112.14851)">
    <text
       xml:space="preserve"
       style="font-size:5.07105px;font-family:Arial;-inkscape-font-specification:'Arial, Normal';fill:#000000;stroke-width:0.845173"
       x="325.51263"
       y="24.915451"
       id="text646"><tspan
         id="tspan646"
         style="stroke-width:0.845173"
         sodipodi:role="line"
         x="325.51263"
         y="24.915451" /></text>
    <text
       xml:space="preserve"
       style="font-style:normal;font-variant:normal;font-weight:normal;font-stretch:normal;font-size:23.7037px;line-height:1.77;font-family:Arial;-inkscape-font-specification:'Arial, Normal';font-variant-ligatures:normal;font-variant-caps:normal;font-variant-numeric:normal;font-variant-east-asian:normal;fill:#000000;stroke-width:0.845556;stroke-dasharray:none"
       x="292.64993"
       y="-20.356058"
       id="text647"><tspan
         sodipodi:role="line"
         id="tspan647"
         style="font-style:normal;font-variant:normal;font-weight:normal;font-stretch:normal;font-size:23.8519px;line-height:1.77;font-family:Arial;-inkscape-font-specification:'Arial, Normal';font-variant-ligatures:normal;font-variant-caps:normal;font-variant-numeric:normal;font-variant-east-asian:normal;text-align:end;text-anchor:end;stroke-width:0.845556;stroke-dasharray:none"
         x="292.64993"
         y="-20.356058">1</tspan><tspan
         sodipodi:role="line"
         style="font-style:normal;font-variant:normal;font-weight:normal;font-stretch:normal;font-size:23.8519px;line-height:1.77;font-family:Arial;-inkscape-font-specification:'Arial, Normal';font-variant-ligatures:normal;font-variant-caps:normal;font-variant-numeric:normal;font-variant-east-asian:normal;text-align:end;text-anchor:end;stroke-width:0.845556;stroke-dasharray:none"
         x="292.64993"
         y="21.861805"
         id="tspan649">2</tspan><tspan
         sodipodi:role="line"
         style="font-style:normal;font-variant:normal;font-weight:normal;font-stretch:normal;font-size:23.8519px;line-height:1.77;font-family:Arial;-inkscape-font-specification:'Arial, Normal';font-variant-ligatures:normal;font-variant-caps:normal;font-variant-numeric:normal;font-variant-east-asian:normal;text-align:end;text-anchor:end;stroke-width:0.845556;stroke-dasharray:none"
         x="292.64993"
         y="64.079666"
         id="tspan650">3</tspan><tspan
         sodipodi:role="line"
         style="font-style:normal;font-variant:normal;font-weight:normal;font-stretch:normal;font-size:23.8519px;line-height:1.77;font-family:Arial;-inkscape-font-specification:'Arial, Normal';font-variant-ligatures:normal;font-variant-caps:normal;font-variant-numeric:normal;font-variant-east-asian:normal;text-align:end;text-anchor:end;stroke-width:0.845556;stroke-dasharray:none"
         x="292.64993"
         y="106.29753"
         id="tspan651">4</tspan><tspan
         sodipodi:role="line"
         style="font-style:normal;font-variant:normal;font-weight:normal;font-stretch:normal;font-size:23.8519px;line-height:1.77;font-family:Arial;-inkscape-font-specification:'Arial, Normal';font-variant-ligatures:normal;font-variant-caps:normal;font-variant-numeric:normal;font-variant-east-asian:normal;text-align:end;text-anchor:end;stroke-width:0.845556;stroke-dasharray:none"
         x="292.64993"
         y="148.5154"
         id="tspan652">5</tspan><tspan
         sodipodi:role="line"
         style="font-style:normal;font-variant:normal;font-weight:normal;font-stretch:normal;font-size:23.8519px;line-height:1.77;font-family:Arial;-inkscape-font-specification:'Arial, Normal';font-variant-ligatures:normal;font-variant-caps:normal;font-variant-numeric:normal;font-variant-east-asian:normal;text-align:end;text-anchor:end;stroke-width:0.845556;stroke-dasharray:none"
         x="292.64993"
         y="190.73326"
         id="tspan2" /><tspan
         sodipodi:role="line"
         style="font-style:normal;font-variant:normal;font-weight:normal;font-stretch:normal;font-size:23.8519px;line-height:1.77;font-family:Arial;-inkscape-font-specification:'Arial, Normal';font-variant-ligatures:normal;font-variant-caps:normal;font-variant-numeric:normal;font-variant-east-asian:normal;text-align:end;text-anchor:end;stroke-width:0.845556;stroke-dasharray:none"
         x="292.64993"
         y="232.95113"
         id="tspan653">6</tspan><tspan
         sodipodi:role="line"
         style="font-style:normal;font-variant:normal;font-weight:normal;font-stretch:normal;font-size:23.8519px;line-height:1.77;font-family:Arial;-inkscape-font-specification:'Arial, Normal';font-variant-ligatures:normal;font-variant-caps:normal;font-variant-numeric:normal;font-variant-east-asian:normal;text-align:end;text-anchor:end;stroke-width:0.845556;stroke-dasharray:none"
         x="292.64993"
         y="275.16898"
         id="tspan654">7</tspan><tspan
         sodipodi:role="line"
         style="font-style:normal;font-variant:normal;font-weight:normal;font-stretch:normal;font-size:23.8519px;line-height:1.77;font-family:Arial;-inkscape-font-specification:'Arial, Normal';font-variant-ligatures:normal;font-variant-caps:normal;font-variant-numeric:normal;font-variant-east-asian:normal;text-align:end;text-anchor:end;stroke-width:0.845556;stroke-dasharray:none"
         x="292.64993"
         y="317.38684"
         id="tspan655">8</tspan><tspan
         sodipodi:role="line"
         style="font-style:normal;font-variant:normal;font-weight:normal;font-stretch:normal;font-size:23.8519px;line-height:1.77;font-family:Arial;-inkscape-font-specification:'Arial, Normal';font-variant-ligatures:normal;font-variant-caps:normal;font-variant-numeric:normal;font-variant-east-asian:normal;text-align:end;text-anchor:end;stroke-width:0.845556;stroke-dasharray:none"
         x="292.64993"
         y="359.60471"
         id="tspan656">9</tspan><tspan
         sodipodi:role="line"
         style="font-style:normal;font-variant:normal;font-weight:normal;font-stretch:normal;font-size:23.8519px;line-height:1.77;font-family:Arial;-inkscape-font-specification:'Arial, Normal';font-variant-ligatures:normal;font-variant-caps:normal;font-variant-numeric:normal;font-variant-east-asian:normal;text-align:end;text-anchor:end;stroke-width:0.845556;stroke-dasharray:none"
         x="292.64993"
         y="401.82257"
         id="tspan657">10</tspan><tspan
         sodipodi:role="line"
         style="font-style:normal;font-variant:normal;font-weight:normal;font-stretch:normal;font-size:23.8519px;line-height:1.77;font-family:Arial;-inkscape-font-specification:'Arial, Normal';font-variant-ligatures:normal;font-variant-caps:normal;font-variant-numeric:normal;font-variant-east-asian:normal;text-align:end;text-anchor:end;stroke-width:0.845556;stroke-dasharray:none"
         x="292.64993"
         y="444.04044"
         id="tspan659">11</tspan><tspan
         sodipodi:role="line"
         style="font-style:normal;font-variant:normal;font-weight:normal;font-stretch:normal;font-size:23.8519px;line-height:1.77;font-family:Arial;-inkscape-font-specification:'Arial, Normal';font-variant-ligatures:normal;font-variant-caps:normal;font-variant-numeric:normal;font-variant-east-asian:normal;text-align:end;text-anchor:end;stroke-width:0.845556;stroke-dasharray:none"
         x="292.64993"
         y="486.2583"
         id="tspan660">12</tspan><tspan
         sodipodi:role="line"
         style="font-style:normal;font-variant:normal;font-weight:normal;font-stretch:normal;font-size:23.8519px;line-height:1.77;font-family:Arial;-inkscape-font-specification:'Arial, Normal';font-variant-ligatures:normal;font-variant-caps:normal;font-variant-numeric:normal;font-variant-east-asian:normal;text-align:end;text-anchor:end;stroke-width:0.845556;stroke-dasharray:none"
         x="292.64993"
         y="528.47614"
         id="tspan661">13</tspan><tspan
         sodipodi:role="line"
         style="font-style:normal;font-variant:normal;font-weight:normal;font-stretch:normal;font-size:23.8519px;line-height:1.77;font-family:Arial;-inkscape-font-specification:'Arial, Normal';font-variant-ligatures:normal;font-variant-caps:normal;font-variant-numeric:normal;font-variant-east-asian:normal;text-align:end;text-anchor:end;stroke-width:0.845556;stroke-dasharray:none"
         x="292.64993"
         y="570.69397"
         id="tspan662">14</tspan><tspan
         sodipodi:role="line"
         style="font-style:normal;font-variant:normal;font-weight:normal;font-stretch:normal;font-size:23.8519px;line-height:1.77;font-family:Arial;-inkscape-font-specification:'Arial, Normal';font-variant-ligatures:normal;font-variant-caps:normal;font-variant-numeric:normal;font-variant-east-asian:normal;text-align:end;text-anchor:end;stroke-width:0.845556;stroke-dasharray:none"
         x="292.64993"
         y="612.91187"
         id="tspan658">15</tspan><tspan
         sodipodi:role="line"
         style="font-style:normal;font-variant:normal;font-weight:normal;font-stretch:normal;font-size:23.8519px;line-height:1.77;font-family:Arial;-inkscape-font-specification:'Arial, Normal';font-variant-ligatures:normal;font-variant-caps:normal;font-variant-numeric:normal;font-variant-east-asian:normal;text-align:end;text-anchor:end;stroke-width:0.845556;stroke-dasharray:none"
         x="292.64993"
         y="655.1297"
         id="tspan3">16</tspan></text>
    <text
       xml:space="preserve"
       style="font-style:normal;font-variant:normal;font-weight:normal;font-stretch:normal;font-size:23.7037px;line-height:1.77;font-family:Arial;-inkscape-font-specification:'Arial, Normal';font-variant-ligatures:normal;font-variant-caps:normal;font-variant-numeric:normal;font-variant-east-asian:normal;fill:#000000;stroke-width:0.845173"
       x="700.12701"
       y="-23.037958"
       id="text647-0"><tspan
         sodipodi:role="line"
         style="font-style:normal;font-variant:normal;font-weight:normal;font-stretch:normal;font-size:23.8519px;line-height:1.77;font-family:Arial;-inkscape-font-specification:'Arial, Normal';font-variant-ligatures:normal;font-variant-caps:normal;font-variant-numeric:normal;font-variant-east-asian:normal;text-align:end;text-anchor:end;stroke-width:0.845173"
         x="700.12701"
         y="-23.037958"
         id="tspan34">32</tspan><tspan
         sodipodi:role="line"
         style="font-style:normal;font-variant:normal;font-weight:normal;font-stretch:normal;font-size:23.8519px;line-height:1.77;font-family:Arial;-inkscape-font-specification:'Arial, Normal';font-variant-ligatures:normal;font-variant-caps:normal;font-variant-numeric:normal;font-variant-east-asian:normal;text-align:end;text-anchor:end;stroke-width:0.845173"
         x="700.12701"
         y="19.179905"
         id="tspan33">31</tspan><tspan
         sodipodi:role="line"
         style="font-style:normal;font-variant:normal;font-weight:normal;font-stretch:normal;font-size:23.8519px;line-height:1.77;font-family:Arial;-inkscape-font-specification:'Arial, Normal';font-variant-ligatures:normal;font-variant-caps:normal;font-variant-numeric:normal;font-variant-east-asian:normal;text-align:end;text-anchor:end;stroke-width:0.845173"
         x="700.12701"
         y="61.397766"
         id="tspan32">30</tspan><tspan
         sodipodi:role="line"
         style="font-style:normal;font-variant:normal;font-weight:normal;font-stretch:normal;font-size:23.8519px;line-height:1.77;font-family:Arial;-inkscape-font-specification:'Arial, Normal';font-variant-ligatures:normal;font-variant-caps:normal;font-variant-numeric:normal;font-variant-east-asian:normal;text-align:end;text-anchor:end;stroke-width:0.845173"
         x="700.12701"
         y="103.61563"
         id="tspan23">29</tspan><tspan
         sodipodi:role="line"
         style="font-style:normal;font-variant:normal;font-weight:normal;font-stretch:normal;font-size:23.8519px;line-height:1.77;font-family:Arial;-inkscape-font-specification:'Arial, Normal';font-variant-ligatures:normal;font-variant-caps:normal;font-variant-numeric:normal;font-variant-east-asian:normal;text-align:end;text-anchor:end;stroke-width:0.845173"
         x="700.12701"
         y="145.8335"
         id="tspan24">28</tspan><tspan
         sodipodi:role="line"
         style="font-style:normal;font-variant:normal;font-weight:normal;font-stretch:normal;font-size:23.8519px;line-height:1.77;font-family:Arial;-inkscape-font-specification:'Arial, Normal';font-variant-ligatures:normal;font-variant-caps:normal;font-variant-numeric:normal;font-variant-east-asian:normal;text-align:end;text-anchor:end;stroke-width:0.845173"
         x="700.12701"
         y="188.05136"
         id="tspan25" /><tspan
         sodipodi:role="line"
         style="font-style:normal;font-variant:normal;font-weight:normal;font-stretch:normal;font-size:23.8519px;line-height:1.77;font-family:Arial;-inkscape-font-specification:'Arial, Normal';font-variant-ligatures:normal;font-variant-caps:normal;font-variant-numeric:normal;font-variant-east-asian:normal;text-align:end;text-anchor:end;stroke-width:0.845173"
         x="700.12701"
         y="230.26921"
         id="tspan35">27</tspan><tspan
         sodipodi:role="line"
         style="font-style:normal;font-variant:normal;font-weight:normal;font-stretch:normal;font-size:23.8519px;line-height:1.77;font-family:Arial;-inkscape-font-specification:'Arial, Normal';font-variant-ligatures:normal;font-variant-caps:normal;font-variant-numeric:normal;font-variant-east-asian:normal;text-align:end;text-anchor:end;stroke-width:0.845173"
         x="700.12701"
         y="272.48709"
         id="tspan26">26</tspan><tspan
         sodipodi:role="line"
         style="font-style:normal;font-variant:normal;font-weight:normal;font-stretch:normal;font-size:23.8519px;line-height:1.77;font-family:Arial;-inkscape-font-specification:'Arial, Normal';font-variant-ligatures:normal;font-variant-caps:normal;font-variant-numeric:normal;font-variant-east-asian:normal;text-align:end;text-anchor:end;stroke-width:0.845173"
         x="700.12701"
         y="314.70496"
         id="tspan27">25</tspan><tspan
         sodipodi:role="line"
         style="font-style:normal;font-variant:normal;font-weight:normal;font-stretch:normal;font-size:23.8519px;line-height:1.77;font-family:Arial;-inkscape-font-specification:'Arial, Normal';font-variant-ligatures:normal;font-variant-caps:normal;font-variant-numeric:normal;font-variant-east-asian:normal;text-align:end;text-anchor:end;stroke-width:0.845173"
         x="700.12701"
         y="356.92282"
         id="tspan28">24</tspan><tspan
         sodipodi:role="line"
         style="font-style:normal;font-variant:normal;font-weight:normal;font-stretch:normal;font-size:23.8519px;line-height:1.77;font-family:Arial;-inkscape-font-specification:'Arial, Normal';font-variant-ligatures:normal;font-variant-caps:normal;font-variant-numeric:normal;font-variant-east-asian:normal;text-align:end;text-anchor:end;stroke-width:0.845173"
         x="700.12701"
         y="399.14066"
         id="tspan29">23</tspan><tspan
         sodipodi:role="line"
         style="font-style:normal;font-variant:normal;font-weight:normal;font-stretch:normal;font-size:23.8519px;line-height:1.77;font-family:Arial;-inkscape-font-specification:'Arial, Normal';font-variant-ligatures:normal;font-variant-caps:normal;font-variant-numeric:normal;font-variant-east-asian:normal;text-align:end;text-anchor:end;stroke-width:0.845173"
         x="700.12701"
         y="441.35852"
         id="tspan30">22</tspan><tspan
         sodipodi:role="line"
         style="font-style:normal;font-variant:normal;font-weight:normal;font-stretch:normal;font-size:23.8519px;line-height:1.77;font-family:Arial;-inkscape-font-specification:'Arial, Normal';font-variant-ligatures:normal;font-variant-caps:normal;font-variant-numeric:normal;font-variant-east-asian:normal;text-align:end;text-anchor:end;stroke-width:0.845173"
         x="700.12701"
         y="483.57639"
         id="tspan31">21</tspan><tspan
         sodipodi:role="line"
         style="font-style:normal;font-variant:normal;font-weight:normal;font-stretch:normal;font-size:23.8519px;line-height:1.77;font-family:Arial;-inkscape-font-specification:'Arial, Normal';font-variant-ligatures:normal;font-variant-caps:normal;font-variant-numeric:normal;font-variant-east-asian:normal;text-align:end;text-anchor:end;stroke-width:0.845173"
         x="700.12701"
         y="525.79425"
         id="tspan22">20</tspan><tspan
         sodipodi:role="line"
         style="font-style:normal;font-variant:normal;font-weight:normal;font-stretch:normal;font-size:23.8519px;line-height:1.77;font-family:Arial;-inkscape-font-specification:'Arial, Normal';font-variant-ligatures:normal;font-variant-caps:normal;font-variant-numeric:normal;font-variant-east-asian:normal;text-align:end;text-anchor:end;stroke-width:0.845173"
         x="700.12701"
         y="568.01215"
         id="tspan21">19</tspan><tspan
         sodipodi:role="line"
         style="font-style:normal;font-variant:normal;font-weight:normal;font-stretch:normal;font-size:23.8519px;line-height:1.77;font-family:Arial;-inkscape-font-specification:'Arial, Normal';font-variant-ligatures:normal;font-variant-caps:normal;font-variant-numeric:normal;font-variant-east-asian:normal;text-align:end;text-anchor:end;stroke-width:0.845173"
         x="700.12701"
         y="610.22998"
         id="tspan20">18</tspan><tspan
         sodipodi:role="line"
         style="font-style:normal;font-variant:normal;font-weight:normal;font-stretch:normal;font-size:23.8519px;line-height:1.77;font-family:Arial;-inkscape-font-specification:'Arial, Normal';font-variant-ligatures:normal;font-variant-caps:normal;font-variant-numeric:normal;font-variant-east-asian:normal;text-align:end;text-anchor:end;stroke-width:0.845173"
         x="700.12701"
         y="652.44781"
         id="tspan19">17</tspan></text>
    <text
       xml:space="preserve"
       style="font-style:normal;font-variant:normal;font-weight:normal;font-stretch:normal;font-size:17.1289px;font-family:Arial;-inkscape-font-specification:'Arial, Normal';font-variant-ligatures:normal;font-variant-caps:normal;font-variant-numeric:normal;font-variant-east-asian:normal;fill:#000000;stroke-width:0.845173"
       x="401.25555"
       y="21.284334"
       id="text702"><tspan
         sodipodi:role="line"
         id="tspan702"
         style="font-style:normal;font-variant:normal;font-weight:normal;font-stretch:normal;font-size:33.807px;font-family:Arial;-inkscape-font-specification:'Arial, Normal';font-variant-ligatures:normal;font-variant-caps:normal;font-variant-numeric:normal;font-variant-east-asian:normal;stroke-width:0.845173"
         x="401.25555"
         y="21.284334">TOP VIEW</tspan></text>
    <g
       id="g36"
       transform="matrix(1.4177693,0,0,1.4177693,-128.72042,10.778032)">
      <path
         d="m 555.23055,-51.303397 1.1e-4,524.851927"
         style="fill:none;stroke:#6f6f6f;stroke-width:1.44;stroke-dasharray:none;stroke-opacity:1"
         id="path632" />
      <path
         d="m 554.85778,-51.303397 a 0.372766,0.372766 0 0 0 0.74553,0 0.372766,0.372766 0 0 0 -0.74553,0 z"
         style="fill:none;stroke:#6f6f6f;stroke-width:1.44;stroke-dasharray:none;stroke-opacity:1"
         id="path633" />
      <path
         d="m 554.85791,473.54853 a 0.37276404,0.37276404 0 0 0 0.74551,0 0.37276404,0.37276404 0 0 0 -0.74551,0 z"
         style="fill:none;stroke:#6f6f6f;stroke-width:1.44;stroke-dasharray:none;stroke-opacity:1"
         id="path634" />
      <path
         d="M 309.20643,473.54853 H 555.23066"
         style="fill:none;stroke:#6f6f6f;stroke-width:1.44;stroke-dasharray:none;stroke-opacity:1"
         id="path635" />
      <path
         d="m 308.83367,473.54853 a 0.372766,0.372766 0 0 0 0.74553,0 0.372766,0.372766 0 0 0 -0.74553,0 z"
         style="fill:none;stroke:#6f6f6f;stroke-width:1.44;stroke-dasharray:none;stroke-opacity:1"
         id="path636" />
      <path
         d="m 554.85791,473.54853 a 0.37276404,0.37276404 0 0 0 0.74551,0 0.37276404,0.37276404 0 0 0 -0.74551,0 z"
         style="fill:none;stroke:#6f6f6f;stroke-width:1.44;stroke-dasharray:none;stroke-opacity:1"
         id="path637" />
      <path
         d="m 309.20641,-51.303397 2e-5,524.851927"
         style="fill:none;stroke:#6f6f6f;stroke-width:1.44;stroke-dasharray:none;stroke-opacity:1"
         id="path638" />
      <path
         d="m 308.83364,-51.303397 a 0.372766,0.372766 0 0 0 0.74553,0 0.372766,0.372766 0 0 0 -0.74553,0 z"
         style="fill:none;stroke:#6f6f6f;stroke-width:1.44;stroke-dasharray:none;stroke-opacity:1"
         id="path639" />
      <path
         d="m 308.83367,473.54853 a 0.372766,0.372766 0 0 0 0.74553,0 0.372766,0.372766 0 0 0 -0.74553,0 z"
         style="fill:none;stroke:#6f6f6f;stroke-width:1.44;stroke-dasharray:none;stroke-opacity:1"
         id="path640" />
      <path
         d="M 309.20641,-51.303397 H 555.23055"
         style="fill:none;stroke:#6f6f6f;stroke-width:1.44;stroke-dasharray:none;stroke-opacity:1"
         id="path641" />
      <path
         d="m 308.83364,-51.303397 a 0.372766,0.372766 0 0 0 0.74553,0 0.372766,0.372766 0 0 0 -0.74553,0 z"
         style="fill:none;stroke:#6f6f6f;stroke-width:1.44;stroke-dasharray:none;stroke-opacity:1"
         id="path642" />
      <path
         d="m 554.85778,-51.303397 a 0.372766,0.372766 0 0 0 0.74553,0 0.372766,0.372766 0 0 0 -0.74553,0 z"
         style="fill:none;stroke:#6f6f6f;stroke-width:1.44;stroke-dasharray:none;stroke-opacity:1"
         id="path643" />
      <path
         d="m 542.7058,299.09464 a 5.964225,5.964225 0 0 0 -11.92845,0 5.964225,5.964225 0 0 0 11.92845,0 z"
         style="fill:none;stroke:#6f6f6f;stroke-width:1.44;stroke-dasharray:none;stroke-opacity:1"
         id="path1529" />
      <path
         d="m 542.33303,299.09464 a 0.372766,0.372766 0 0 0 0.74553,0 0.372766,0.372766 0 0 0 -0.74553,0 z"
         style="fill:none;stroke:#6f6f6f;stroke-width:1.44;stroke-dasharray:none;stroke-opacity:1"
         id="path1530" />
      <path
         d="m 530.40458,299.09464 a 0.372766,0.372766 0 0 0 0.74553,0 0.372766,0.372766 0 0 0 -0.74553,0 z"
         style="fill:none;stroke:#6f6f6f;stroke-width:1.44;stroke-dasharray:none;stroke-opacity:1"
         id="path1531" />
      <path
         d="m 333.6599,269.27352 a 5.964225,5.964225 0 0 0 -11.92845,0 5.964225,5.964225 0 0 0 11.92845,0 z"
         style="fill:none;stroke:#6f6f6f;stroke-width:1.44;stroke-dasharray:none;stroke-opacity:1"
         id="path1532" />
      <path
         d="m 333.28714,269.27352 a 0.372766,0.372766 0 0 0 0.74553,0 0.372766,0.372766 0 0 0 -0.74553,0 z"
         style="fill:none;stroke:#6f6f6f;stroke-width:1.44;stroke-dasharray:none;stroke-opacity:1"
         id="path1533" />
      <path
         d="m 321.35869,269.27352 a 0.37277,0.37277 0 0 0 0.74554,0 0.37277,0.37277 0 0 0 -0.74554,0 z"
         style="fill:none;stroke:#6f6f6f;stroke-width:1.44;stroke-dasharray:none;stroke-opacity:1"
         id="path1534" />
      <path
         d="m 333.6599,239.4524 a 5.964225,5.964225 0 0 0 -11.92845,0 5.964225,5.964225 0 0 0 11.92845,0 z"
         style="fill:none;stroke:#6f6f6f;stroke-width:1.44;stroke-dasharray:none;stroke-opacity:1"
         id="path1535" />
      <path
         d="m 333.28714,239.4524 a 0.372766,0.372766 0 0 0 0.74553,0 0.372766,0.372766 0 0 0 -0.74553,0 z"
         style="fill:none;stroke:#6f6f6f;stroke-width:1.44;stroke-dasharray:none;stroke-opacity:1"
         id="path1536" />
      <path
         d="m 321.35869,239.4524 a 0.37277,0.37277 0 0 0 0.74554,0 0.37277,0.37277 0 0 0 -0.74554,0 z"
         style="fill:none;stroke:#6f6f6f;stroke-width:1.44;stroke-dasharray:none;stroke-opacity:1"
         id="path1537" />
      <path
         d="m 333.6599,209.63128 a 5.964225,5.964225 0 0 0 -11.92845,0 5.964225,5.964225 0 0 0 11.92845,0 z"
         style="fill:none;stroke:#6f6f6f;stroke-width:1.44;stroke-dasharray:none;stroke-opacity:1"
         id="path1538" />
      <path
         d="m 333.28714,209.63128 a 0.372766,0.372766 0 0 0 0.74553,0 0.372766,0.372766 0 0 0 -0.74553,0 z"
         style="fill:none;stroke:#6f6f6f;stroke-width:1.44;stroke-dasharray:none;stroke-opacity:1"
         id="path1539" />
      <path
         d="m 321.35869,209.63128 a 0.37277,0.37277 0 0 0 0.74554,0 0.37277,0.37277 0 0 0 -0.74554,0 z"
         style="fill:none;stroke:#6f6f6f;stroke-width:1.44;stroke-dasharray:none;stroke-opacity:1"
         id="path1540" />
      <path
         d="m 333.6599,179.81015 a 5.964225,5.964225 0 0 0 -11.92845,0 5.964225,5.964225 0 0 0 11.92845,0 z"
         style="fill:none;stroke:#6f6f6f;stroke-width:1.44;stroke-dasharray:none;stroke-opacity:1"
         id="path1541" />
      <path
         d="m 333.28714,179.81015 a 0.372766,0.372766 0 0 0 0.74553,0 0.372766,0.372766 0 0 0 -0.74553,0 z"
         style="fill:none;stroke:#6f6f6f;stroke-width:1.44;stroke-dasharray:none;stroke-opacity:1"
         id="path1542" />
      <path
         d="m 321.35869,179.81015 a 0.37277,0.37277 0 0 0 0.74554,0 0.37277,0.37277 0 0 0 -0.74554,0 z"
         style="fill:none;stroke:#6f6f6f;stroke-width:1.44;stroke-dasharray:none;stroke-opacity:1"
         id="path1543" />
      <path
         d="m 333.6599,149.98904 a 5.964225,5.964225 0 0 0 -11.92845,0 5.964225,5.964225 0 0 0 11.92845,0 z"
         style="fill:none;stroke:#6f6f6f;stroke-width:1.44;stroke-dasharray:none;stroke-opacity:1"
         id="path1544" />
      <path
         d="m 333.28714,149.98904 a 0.372766,0.372766 0 0 0 0.74553,0 0.372766,0.372766 0 0 0 -0.74553,0 z"
         style="fill:none;stroke:#6f6f6f;stroke-width:1.44;stroke-dasharray:none;stroke-opacity:1"
         id="path1545" />
      <path
         d="m 321.35869,149.98904 a 0.37277,0.37277 0 0 0 0.74554,0 0.37277,0.37277 0 0 0 -0.74554,0 z"
         style="fill:none;stroke:#6f6f6f;stroke-width:1.44;stroke-dasharray:none;stroke-opacity:1"
         id="path1546" />
      <path
         d="m 333.6599,90.346904 a 5.964225,5.964225 0 0 0 -11.92845,0 5.964225,5.964225 0 0 0 11.92845,0 z"
         style="fill:none;stroke:#6f6f6f;stroke-width:1.44;stroke-dasharray:none;stroke-opacity:1"
         id="path1547" />
      <path
         d="m 333.28714,90.346904 a 0.372766,0.372766 0 0 0 0.74553,0 0.372766,0.372766 0 0 0 -0.74553,0 z"
         style="fill:none;stroke:#6f6f6f;stroke-width:1.44;stroke-dasharray:none;stroke-opacity:1"
         id="path1548" />
      <path
         d="m 321.35869,90.346904 a 0.37277,0.37277 0 0 0 0.74554,0 0.37277,0.37277 0 0 0 -0.74554,0 z"
         style="fill:none;stroke:#6f6f6f;stroke-width:1.44;stroke-dasharray:none;stroke-opacity:1"
         id="path1549" />
      <path
         d="m 333.6599,60.52578 a 5.964225,5.964225 0 0 0 -11.92845,0 5.964225,5.964225 0 0 0 11.92845,0 z"
         style="fill:none;stroke:#6f6f6f;stroke-width:1.44;stroke-dasharray:none;stroke-opacity:1"
         id="path1550" />
      <path
         d="m 333.28714,60.52578 a 0.372766,0.372766 0 0 0 0.74553,0 0.372766,0.372766 0 0 0 -0.74553,0 z"
         style="fill:none;stroke:#6f6f6f;stroke-width:1.44;stroke-dasharray:none;stroke-opacity:1"
         id="path1551" />
      <path
         d="m 321.35869,60.52578 a 0.37277,0.37277 0 0 0 0.74554,0 0.37277,0.37277 0 0 0 -0.74554,0 z"
         style="fill:none;stroke:#6f6f6f;stroke-width:1.44;stroke-dasharray:none;stroke-opacity:1"
         id="path1552" />
      <path
         d="m 333.6599,-28.937585 a 5.964225,5.964225 0 0 0 -11.92845,0 5.964225,5.964225 0 0 0 11.92845,0 z"
         style="fill:none;stroke:#6f6f6f;stroke-width:1.44;stroke-dasharray:none;stroke-opacity:1"
         id="path1553" />
      <path
         d="m 333.28714,-28.937585 a 0.372766,0.372766 0 0 0 0.74553,0 0.372766,0.372766 0 0 0 -0.74553,0 z"
         style="fill:none;stroke:#6f6f6f;stroke-width:1.44;stroke-dasharray:none;stroke-opacity:1"
         id="path1554" />
      <path
         d="m 321.35869,-28.937585 a 0.37277,0.37277 0 0 0 0.74554,0 0.37277,0.37277 0 0 0 -0.74554,0 z"
         style="fill:none;stroke:#6f6f6f;stroke-width:1.44;stroke-dasharray:none;stroke-opacity:1"
         id="path1555" />
      <path
         d="m 333.6599,0.88353873 a 5.964225,5.964225 0 0 0 -11.92845,0 5.964225,5.964225 0 0 0 11.92845,0 z"
         style="fill:none;stroke:#6f6f6f;stroke-width:1.44;stroke-dasharray:none;stroke-opacity:1"
         id="path1556" />
      <path
         d="m 333.28714,0.88353873 a 0.372766,0.372766 0 0 0 0.74553,0 0.372766,0.372766 0 0 0 -0.74553,0 z"
         style="fill:none;stroke:#6f6f6f;stroke-width:1.44;stroke-dasharray:none;stroke-opacity:1"
         id="path1557" />
      <path
         d="m 321.35869,0.88353873 a 0.37277,0.37277 0 0 0 0.74554,0 0.37277,0.37277 0 0 0 -0.74554,0 z"
         style="fill:none;stroke:#6f6f6f;stroke-width:1.44;stroke-dasharray:none;stroke-opacity:1"
         id="path1558" />
      <path
         d="m 333.6599,30.704663 a 5.964225,5.964225 0 0 0 -11.92845,0 5.964225,5.964225 0 0 0 11.92845,0 z"
         style="fill:none;stroke:#6f6f6f;stroke-width:1.44;stroke-dasharray:none;stroke-opacity:1"
         id="path1559" />
      <path
         d="m 333.28714,30.704663 a 0.372766,0.372766 0 0 0 0.74553,0 0.372766,0.372766 0 0 0 -0.74553,0 z"
         style="fill:none;stroke:#6f6f6f;stroke-width:1.44;stroke-dasharray:none;stroke-opacity:1"
         id="path1560" />
      <path
         d="m 321.35869,30.704663 a 0.37277,0.37277 0 0 0 0.74554,0 0.37277,0.37277 0 0 0 -0.74554,0 z"
         style="fill:none;stroke:#6f6f6f;stroke-width:1.44;stroke-dasharray:none;stroke-opacity:1"
         id="path1561" />
      <path
         d="m 542.7058,328.91577 a 5.964225,5.964225 0 0 0 -11.92845,0 5.964225,5.964225 0 0 0 11.92845,0 z"
         style="fill:none;stroke:#6f6f6f;stroke-width:1.44;stroke-dasharray:none;stroke-opacity:1"
         id="path1562" />
      <path
         d="m 542.33303,328.91577 a 0.372766,0.372766 0 0 0 0.74553,0 0.372766,0.372766 0 0 0 -0.74553,0 z"
         style="fill:none;stroke:#6f6f6f;stroke-width:1.44;stroke-dasharray:none;stroke-opacity:1"
         id="path1563" />
      <path
         d="m 530.40458,328.91577 a 0.372766,0.372766 0 0 0 0.74553,0 0.372766,0.372766 0 0 0 -0.74553,0 z"
         style="fill:none;stroke:#6f6f6f;stroke-width:1.44;stroke-dasharray:none;stroke-opacity:1"
         id="path1564" />
      <path
         d="m 542.7058,358.7369 a 5.964225,5.964225 0 0 0 -11.92845,0 5.964225,5.964225 0 0 0 11.92845,0 z"
         style="fill:none;stroke:#6f6f6f;stroke-width:1.44;stroke-dasharray:none;stroke-opacity:1"
         id="path1565" />
      <path
         d="m 542.33303,358.7369 a 0.372766,0.372766 0 0 0 0.74553,0 0.372766,0.372766 0 0 0 -0.74553,0 z"
         style="fill:none;stroke:#6f6f6f;stroke-width:1.44;stroke-dasharray:none;stroke-opacity:1"
         id="path1566" />
      <path
         d="m 530.40458,358.7369 a 0.372766,0.372766 0 0 0 0.74553,0 0.372766,0.372766 0 0 0 -0.74553,0 z"
         style="fill:none;stroke:#6f6f6f;stroke-width:1.44;stroke-dasharray:none;stroke-opacity:1"
         id="path1567" />
      <path
         d="m 542.7058,388.55801 a 5.964225,5.964225 0 0 0 -11.92845,0 5.964225,5.964225 0 0 0 11.92845,0 z"
         style="fill:none;stroke:#6f6f6f;stroke-width:1.44;stroke-dasharray:none;stroke-opacity:1"
         id="path1568" />
      <path
         d="m 542.33303,388.55801 a 0.372766,0.372766 0 0 0 0.74553,0 0.372766,0.372766 0 0 0 -0.74553,0 z"
         style="fill:none;stroke:#6f6f6f;stroke-width:1.44;stroke-dasharray:none;stroke-opacity:1"
         id="path1569" />
      <path
         d="m 530.40458,388.55801 a 0.372766,0.372766 0 0 0 0.74553,0 0.372766,0.372766 0 0 0 -0.74553,0 z"
         style="fill:none;stroke:#6f6f6f;stroke-width:1.44;stroke-dasharray:none;stroke-opacity:1"
         id="path1570" />
      <path
         d="m 542.7058,418.37914 a 5.964225,5.964225 0 0 0 -11.92845,0 5.964225,5.964225 0 0 0 11.92845,0 z"
         style="fill:none;stroke:#6f6f6f;stroke-width:1.44;stroke-dasharray:none;stroke-opacity:1"
         id="path1571" />
      <path
         d="m 542.33303,418.37914 a 0.372766,0.372766 0 0 0 0.74553,0 0.372766,0.372766 0 0 0 -0.74553,0 z"
         style="fill:none;stroke:#6f6f6f;stroke-width:1.44;stroke-dasharray:none;stroke-opacity:1"
         id="path1572" />
      <path
         d="m 530.40458,418.37914 a 0.372766,0.372766 0 0 0 0.74553,0 0.372766,0.372766 0 0 0 -0.74553,0 z"
         style="fill:none;stroke:#6f6f6f;stroke-width:1.44;stroke-dasharray:none;stroke-opacity:1"
         id="path1573" />
      <path
         d="m 542.7058,448.20027 a 5.964225,5.964225 0 0 0 -11.92845,0 5.964225,5.964225 0 0 0 11.92845,0 z"
         style="fill:none;stroke:#6f6f6f;stroke-width:1.44;stroke-dasharray:none;stroke-opacity:1"
         id="path1574" />
      <path
         d="m 542.33303,448.20027 a 0.372766,0.372766 0 0 0 0.74553,0 0.372766,0.372766 0 0 0 -0.74553,0 z"
         style="fill:none;stroke:#6f6f6f;stroke-width:1.44;stroke-dasharray:none;stroke-opacity:1"
         id="path1575" />
      <path
         d="m 530.40458,448.20027 a 0.372766,0.372766 0 0 0 0.74553,0 0.372766,0.372766 0 0 0 -0.74553,0 z"
         style="fill:none;stroke:#6f6f6f;stroke-width:1.44;stroke-dasharray:none;stroke-opacity:1"
         id="path1576" />
      <path
         d="m 333.6599,448.20027 a 5.964225,5.964225 0 0 0 -11.92845,0 5.964225,5.964225 0 0 0 11.92845,0 z"
         style="fill:none;stroke:#6f6f6f;stroke-width:1.44;stroke-dasharray:none;stroke-opacity:1"
         id="path1577" />
      <path
         d="m 333.28714,448.20027 a 0.372766,0.372766 0 0 0 0.74553,0 0.372766,0.372766 0 0 0 -0.74553,0 z"
         style="fill:none;stroke:#6f6f6f;stroke-width:1.44;stroke-dasharray:none;stroke-opacity:1"
         id="path1578" />
      <path
         d="m 321.35869,448.20027 a 0.37277,0.37277 0 0 0 0.74554,0 0.37277,0.37277 0 0 0 -0.74554,0 z"
         style="fill:none;stroke:#6f6f6f;stroke-width:1.44;stroke-dasharray:none;stroke-opacity:1"
         id="path1579" />
      <path
         d="m 333.6599,418.37914 a 5.964225,5.964225 0 0 0 -11.92845,0 5.964225,5.964225 0 0 0 11.92845,0 z"
         style="fill:none;stroke:#6f6f6f;stroke-width:1.44;stroke-dasharray:none;stroke-opacity:1"
         id="path1580" />
      <path
         d="m 333.28714,418.37914 a 0.372766,0.372766 0 0 0 0.74553,0 0.372766,0.372766 0 0 0 -0.74553,0 z"
         style="fill:none;stroke:#6f6f6f;stroke-width:1.44;stroke-dasharray:none;stroke-opacity:1"
         id="path1581" />
      <path
         d="m 321.35869,418.37914 a 0.37277,0.37277 0 0 0 0.74554,0 0.37277,0.37277 0 0 0 -0.74554,0 z"
         style="fill:none;stroke:#6f6f6f;stroke-width:1.44;stroke-dasharray:none;stroke-opacity:1"
         id="path1582" />
      <path
         d="m 333.6599,388.55801 a 5.964225,5.964225 0 0 0 -11.92845,0 5.964225,5.964225 0 0 0 11.92845,0 z"
         style="fill:none;stroke:#6f6f6f;stroke-width:1.44;stroke-dasharray:none;stroke-opacity:1"
         id="path1583" />
      <path
         d="m 333.28714,388.55801 a 0.372766,0.372766 0 0 0 0.74553,0 0.372766,0.372766 0 0 0 -0.74553,0 z"
         style="fill:none;stroke:#6f6f6f;stroke-width:1.44;stroke-dasharray:none;stroke-opacity:1"
         id="path1584" />
      <path
         d="m 321.35869,388.55801 a 0.37277,0.37277 0 0 0 0.74554,0 0.37277,0.37277 0 0 0 -0.74554,0 z"
         style="fill:none;stroke:#6f6f6f;stroke-width:1.44;stroke-dasharray:none;stroke-opacity:1"
         id="path1585" />
      <path
         d="m 333.6599,358.7369 a 5.964225,5.964225 0 0 0 -11.92845,0 5.964225,5.964225 0 0 0 11.92845,0 z"
         style="fill:none;stroke:#6f6f6f;stroke-width:1.44;stroke-dasharray:none;stroke-opacity:1"
         id="path1586" />
      <path
         d="m 333.28714,358.7369 a 0.372766,0.372766 0 0 0 0.74553,0 0.372766,0.372766 0 0 0 -0.74553,0 z"
         style="fill:none;stroke:#6f6f6f;stroke-width:1.44;stroke-dasharray:none;stroke-opacity:1"
         id="path1587" />
      <path
         d="m 321.35869,358.7369 a 0.37277,0.37277 0 0 0 0.74554,0 0.37277,0.37277 0 0 0 -0.74554,0 z"
         style="fill:none;stroke:#6f6f6f;stroke-width:1.44;stroke-dasharray:none;stroke-opacity:1"
         id="path1588" />
      <path
         d="m 333.6599,328.91577 a 5.964225,5.964225 0 0 0 -11.92845,0 5.964225,5.964225 0 0 0 11.92845,0 z"
         style="fill:none;stroke:#6f6f6f;stroke-width:1.44;stroke-dasharray:none;stroke-opacity:1"
         id="path1589" />
      <path
         d="m 333.28714,328.91577 a 0.372766,0.372766 0 0 0 0.74553,0 0.372766,0.372766 0 0 0 -0.74553,0 z"
         style="fill:none;stroke:#6f6f6f;stroke-width:1.44;stroke-dasharray:none;stroke-opacity:1"
         id="path1590" />
      <path
         d="m 321.35869,328.91577 a 0.37277,0.37277 0 0 0 0.74554,0 0.37277,0.37277 0 0 0 -0.74554,0 z"
         style="fill:none;stroke:#6f6f6f;stroke-width:1.44;stroke-dasharray:none;stroke-opacity:1"
         id="path1591" />
      <path
         d="m 333.6599,299.09464 a 5.964225,5.964225 0 0 0 -11.92845,0 5.964225,5.964225 0 0 0 11.92845,0 z"
         style="fill:none;stroke:#6f6f6f;stroke-width:1.44;stroke-dasharray:none;stroke-opacity:1"
         id="path1592" />
      <path
         d="m 333.28714,299.09464 a 0.372766,0.372766 0 0 0 0.74553,0 0.372766,0.372766 0 0 0 -0.74553,0 z"
         style="fill:none;stroke:#6f6f6f;stroke-width:1.44;stroke-dasharray:none;stroke-opacity:1"
         id="path1593" />
      <path
         d="m 321.35869,299.09464 a 0.37277,0.37277 0 0 0 0.74554,0 0.37277,0.37277 0 0 0 -0.74554,0 z"
         style="fill:none;stroke:#6f6f6f;stroke-width:1.44;stroke-dasharray:none;stroke-opacity:1"
         id="path1594" />
      <path
         d="m 542.7058,30.704498 a 5.964225,5.964225 0 0 0 -11.92845,0 5.964225,5.964225 0 0 0 11.92845,0 z"
         style="fill:none;stroke:#6f6f6f;stroke-width:1.44;stroke-dasharray:none;stroke-opacity:1"
         id="path1595" />
      <path
         d="m 542.33303,30.704498 a 0.372766,0.372766 0 0 0 0.74553,0 0.372766,0.372766 0 0 0 -0.74553,0 z"
         style="fill:none;stroke:#6f6f6f;stroke-width:1.44;stroke-dasharray:none;stroke-opacity:1"
         id="path1596" />
      <path
         d="m 530.40458,30.704498 a 0.372766,0.372766 0 0 0 0.74553,0 0.372766,0.372766 0 0 0 -0.74553,0 z"
         style="fill:none;stroke:#6f6f6f;stroke-width:1.44;stroke-dasharray:none;stroke-opacity:1"
         id="path1597" />
      <path
         d="m 542.7058,0.8833874 a 5.964225,5.964225 0 0 0 -11.92845,0 5.964225,5.964225 0 0 0 11.92845,0 z"
         style="fill:none;stroke:#6f6f6f;stroke-width:1.44;stroke-dasharray:none;stroke-opacity:1"
         id="path1598" />
      <path
         d="m 542.33303,0.8833874 a 0.372766,0.372766 0 0 0 0.74553,0 0.372766,0.372766 0 0 0 -0.74553,0 z"
         style="fill:none;stroke:#6f6f6f;stroke-width:1.44;stroke-dasharray:none;stroke-opacity:1"
         id="path1599" />
      <path
         d="m 530.40458,0.8833874 a 0.372766,0.372766 0 0 0 0.74553,0 0.372766,0.372766 0 0 0 -0.74553,0 z"
         style="fill:none;stroke:#6f6f6f;stroke-width:1.44;stroke-dasharray:none;stroke-opacity:1"
         id="path1600" />
      <path
         d="m 542.7058,-28.937744 a 5.964225,5.964225 0 0 0 -11.92845,0 5.964225,5.964225 0 0 0 11.92845,0 z"
         style="fill:none;stroke:#6f6f6f;stroke-width:1.44;stroke-dasharray:none;stroke-opacity:1"
         id="path1601" />
      <path
         d="m 542.33303,-28.937744 a 0.372766,0.372766 0 0 0 0.74553,0 0.372766,0.372766 0 0 0 -0.74553,0 z"
         style="fill:none;stroke:#6f6f6f;stroke-width:1.44;stroke-dasharray:none;stroke-opacity:1"
         id="path1602" />
      <path
         d="m 530.40458,-28.937744 a 0.372766,0.372766 0 0 0 0.74553,0 0.372766,0.372766 0 0 0 -0.74553,0 z"
         style="fill:none;stroke:#6f6f6f;stroke-width:1.44;stroke-dasharray:none;stroke-opacity:1"
         id="path1603" />
      <path
         d="m 542.7058,60.525629 a 5.964225,5.964225 0 0 0 -11.92845,0 5.964225,5.964225 0 0 0 11.92845,0 z"
         style="fill:none;stroke:#6f6f6f;stroke-width:1.44;stroke-dasharray:none;stroke-opacity:1"
         id="path1604" />
      <path
         d="m 542.33303,60.525629 a 0.372766,0.372766 0 0 0 0.74553,0 0.372766,0.372766 0 0 0 -0.74553,0 z"
         style="fill:none;stroke:#6f6f6f;stroke-width:1.44;stroke-dasharray:none;stroke-opacity:1"
         id="path1605" />
      <path
         d="m 530.40458,60.525629 a 0.372766,0.372766 0 0 0 0.74553,0 0.372766,0.372766 0 0 0 -0.74553,0 z"
         style="fill:none;stroke:#6f6f6f;stroke-width:1.44;stroke-dasharray:none;stroke-opacity:1"
         id="path1606" />
      <path
         d="m 542.7058,90.346753 a 5.964225,5.964225 0 0 0 -11.92845,0 5.964225,5.964225 0 0 0 11.92845,0 z"
         style="fill:none;stroke:#6f6f6f;stroke-width:1.44;stroke-dasharray:none;stroke-opacity:1"
         id="path1607" />
      <path
         d="m 542.33303,90.346753 a 0.372766,0.372766 0 0 0 0.74553,0 0.372766,0.372766 0 0 0 -0.74553,0 z"
         style="fill:none;stroke:#6f6f6f;stroke-width:1.44;stroke-dasharray:none;stroke-opacity:1"
         id="path1608" />
      <path
         d="m 530.40458,90.346753 a 0.372766,0.372766 0 0 0 0.74553,0 0.372766,0.372766 0 0 0 -0.74553,0 z"
         style="fill:none;stroke:#6f6f6f;stroke-width:1.44;stroke-dasharray:none;stroke-opacity:1"
         id="path1609" />
      <path
         d="m 542.7058,149.98904 a 5.964225,5.964225 0 0 0 -11.92845,0 5.964225,5.964225 0 0 0 11.92845,0 z"
         style="fill:none;stroke:#6f6f6f;stroke-width:1.44;stroke-dasharray:none;stroke-opacity:1"
         id="path1610" />
      <path
         d="m 542.33303,149.98904 a 0.372766,0.372766 0 0 0 0.74553,0 0.372766,0.372766 0 0 0 -0.74553,0 z"
         style="fill:none;stroke:#6f6f6f;stroke-width:1.44;stroke-dasharray:none;stroke-opacity:1"
         id="path1611" />
      <path
         d="m 530.40458,149.98904 a 0.372766,0.372766 0 0 0 0.74553,0 0.372766,0.372766 0 0 0 -0.74553,0 z"
         style="fill:none;stroke:#6f6f6f;stroke-width:1.44;stroke-dasharray:none;stroke-opacity:1"
         id="path1612" />
      <path
         d="m 542.7058,179.81015 a 5.964225,5.964225 0 0 0 -11.92845,0 5.964225,5.964225 0 0 0 11.92845,0 z"
         style="fill:none;stroke:#6f6f6f;stroke-width:1.44;stroke-dasharray:none;stroke-opacity:1"
         id="path1613" />
      <path
         d="m 542.33303,179.81015 a 0.372766,0.372766 0 0 0 0.74553,0 0.372766,0.372766 0 0 0 -0.74553,0 z"
         style="fill:none;stroke:#6f6f6f;stroke-width:1.44;stroke-dasharray:none;stroke-opacity:1"
         id="path1614" />
      <path
         d="m 530.40458,179.81015 a 0.372766,0.372766 0 0 0 0.74553,0 0.372766,0.372766 0 0 0 -0.74553,0 z"
         style="fill:none;stroke:#6f6f6f;stroke-width:1.44;stroke-dasharray:none;stroke-opacity:1"
         id="path1615" />
      <path
         d="m 542.7058,209.63128 a 5.964225,5.964225 0 0 0 -11.92845,0 5.964225,5.964225 0 0 0 11.92845,0 z"
         style="fill:none;stroke:#6f6f6f;stroke-width:1.44;stroke-dasharray:none;stroke-opacity:1"
         id="path1616" />
      <path
         d="m 542.33303,209.63128 a 0.372766,0.372766 0 0 0 0.74553,0 0.372766,0.372766 0 0 0 -0.74553,0 z"
         style="fill:none;stroke:#6f6f6f;stroke-width:1.44;stroke-dasharray:none;stroke-opacity:1"
         id="path1617" />
      <path
         d="m 530.40458,209.63128 a 0.372766,0.372766 0 0 0 0.74553,0 0.372766,0.372766 0 0 0 -0.74553,0 z"
         style="fill:none;stroke:#6f6f6f;stroke-width:1.44;stroke-dasharray:none;stroke-opacity:1"
         id="path1618" />
      <path
         d="m 542.7058,239.4524 a 5.964225,5.964225 0 0 0 -11.92845,0 5.964225,5.964225 0 0 0 11.92845,0 z"
         style="fill:none;stroke:#6f6f6f;stroke-width:1.44;stroke-dasharray:none;stroke-opacity:1"
         id="path1619" />
      <path
         d="m 542.33303,239.4524 a 0.372766,0.372766 0 0 0 0.74553,0 0.372766,0.372766 0 0 0 -0.74553,0 z"
         style="fill:none;stroke:#6f6f6f;stroke-width:1.44;stroke-dasharray:none;stroke-opacity:1"
         id="path1620" />
      <path
         d="m 530.40458,239.4524 a 0.372766,0.372766 0 0 0 0.74553,0 0.372766,0.372766 0 0 0 -0.74553,0 z"
         style="fill:none;stroke:#6f6f6f;stroke-width:1.44;stroke-dasharray:none;stroke-opacity:1"
         id="path1621" />
      <path
         d="m 542.7058,269.27352 a 5.964225,5.964225 0 0 0 -11.92845,0 5.964225,5.964225 0 0 0 11.92845,0 z"
         style="fill:none;stroke:#6f6f6f;stroke-width:1.44;stroke-dasharray:none;stroke-opacity:1"
         id="path1622" />
      <path
         d="m 542.33303,269.27352 a 0.372766,0.372766 0 0 0 0.74553,0 0.372766,0.372766 0 0 0 -0.74553,0 z"
         style="fill:none;stroke:#6f6f6f;stroke-width:1.44;stroke-dasharray:none;stroke-opacity:1"
         id="path1623" />
      <path
         d="m 530.40458,269.27352 a 0.372766,0.372766 0 0 0 0.74553,0 0.372766,0.372766 0 0 0 -0.74553,0 z"
         style="fill:none;stroke:#6f6f6f;stroke-width:1.44;stroke-dasharray:none;stroke-opacity:1"
         id="path1624" />
    </g>
  </g>
</svg>
