<?xml version="1.0" encoding="UTF-8" standalone="no"?>
<!-- Created with Inkscape (http://www.inkscape.org/) -->

<svg
   xmlns:dc="http://purl.org/dc/elements/1.1/"
   xmlns:cc="http://creativecommons.org/ns#"
   xmlns:rdf="http://www.w3.org/1999/02/22-rdf-syntax-ns#"
   xmlns:svg="http://www.w3.org/2000/svg"
   xmlns="http://www.w3.org/2000/svg"
   xmlns:sodipodi="http://sodipodi.sourceforge.net/DTD/sodipodi-0.dtd"
   xmlns:inkscape="http://www.inkscape.org/namespaces/inkscape"
   width="246.34117mm"
   height="61.258213mm"
   viewBox="0 0 246.34117 61.258214"
   version="1.1"
   id="svg8"
   sodipodi:docname="IS_LOGO_BLACK_F01.svg"
   inkscape:version="0.92.4 (5da689c313, 2019-01-14)">
  <defs
     id="defs2">
    <clipPath
       id="clipPath26"
       clipPathUnits="userSpaceOnUse">
      <path
         inkscape:connector-curvature="0"
         id="path24"
         d="M 0,144 H 720 V 0 H 0 Z" />
    </clipPath>
  </defs>
  <sodipodi:namedview
     id="base"
     pagecolor="#ffffff"
     bordercolor="#666666"
     borderopacity="1.0"
     inkscape:pageopacity="0.0"
     inkscape:pageshadow="2"
     inkscape:zoom="0.35"
     inkscape:cx="45.526609"
     inkscape:cy="24.334938"
     inkscape:document-units="mm"
     inkscape:current-layer="layer1"
     showgrid="false"
     inkscape:window-width="1826"
     inkscape:window-height="1057"
     inkscape:window-x="1028"
     inkscape:window-y="2152"
     inkscape:window-maximized="1"
     fit-margin-top="8"
     fit-margin-left="8"
     fit-margin-right="8"
     fit-margin-bottom="8" />
  <metadata
     id="metadata5">
    <rdf:RDF>
      <cc:Work
         rdf:about="">
        <dc:format>image/svg+xml</dc:format>
        <dc:type
           rdf:resource="http://purl.org/dc/dcmitype/StillImage" />
        <dc:title></dc:title>
      </cc:Work>
    </rdf:RDF>
  </metadata>
  <g
     inkscape:label="Layer 1"
     inkscape:groupmode="layer"
     id="layer1"
     transform="translate(19.605106,-94.013746)">
    <g
       transform="matrix(0.35277777,0,0,-0.35277777,-19.436843,149.93462)"
       inkscape:label="IS_LOGO_BLACK_F01"
       id="g18">
      <g
         id="g20">
        <g
           clip-path="url(#clipPath26)"
           id="g22">
          <g
             transform="translate(102.0928,89.3916)"
             id="g28">
            <path
               inkscape:connector-curvature="0"
               id="path30"
               style="fill:#ec2534;fill-opacity:1;fill-rule:nonzero;stroke:none"
               d="M 0,0 2.276,-5.451 16.579,2.617 2.319,10.918 0.054,5.584 C -13.83,5.163 -39.791,2.82 -39.791,-8.79 c 0,-7.19 9.239,-10.42 19.858,-13.401 v 5.805 c -7.05,2.046 -14.276,4.606 -14.276,7.596 0,3.942 13.528,8.141 34.209,8.79 m 8.315,-32.128 c 0,7.193 -9.25,10.424 -19.877,13.407 v -5.804 c 7.057,-2.047 14.296,-4.61 14.296,-7.603 0,-4.154 -15.018,-8.596 -37.604,-8.865 v -5.58 c 12.484,0.153 43.185,1.821 43.185,14.445 m 535.33,54.216 h 28.228 V 16.167 H 550.461 V 0.951 h 17.418 V -4.97 h -17.418 v -15.628 h 22.582 v -5.922 h -29.398 z m -37.452,-37.867 c 0,0 5.164,-5.233 12.394,-5.233 4.544,0 8.399,2.548 8.399,7.161 0,10.534 -23.546,8.263 -23.546,23.202 0,7.573 6.54,13.563 15.698,13.563 9.019,0 13.769,-4.888 13.769,-4.888 l -3.098,-5.646 c 0,0 -4.475,4.201 -10.671,4.201 -5.164,0 -8.813,-3.236 -8.813,-7.092 0,-10.052 23.546,-7.367 23.546,-23.134 0,-7.504 -5.783,-13.7 -15.422,-13.7 -10.327,0 -16.111,6.403 -16.111,6.403 z m -52.251,37.867 h 6.747 l 21.619,-31.602 c 1.791,-2.616 4.061,-7.022 4.061,-7.022 h 0.138 c 0,0 -0.481,4.337 -0.481,7.022 v 31.602 h 6.816 V -26.52 h -6.678 L 464.477,5.013 c -1.79,2.685 -4.063,7.092 -4.063,7.092 h -0.138 c 0,0 0.483,-4.337 0.483,-7.092 V -26.52 h -6.817 z m -39.447,0 h 28.229 V 16.167 H 421.311 V 0.951 h 17.418 V -4.97 h -17.418 v -15.628 h 22.583 v -5.922 h -29.399 z m -37.45,-37.867 c 0,0 5.163,-5.233 12.392,-5.233 4.543,0 8.399,2.548 8.399,7.161 0,10.534 -23.545,8.263 -23.545,23.202 0,7.573 6.54,13.563 15.697,13.563 9.019,0 13.77,-4.888 13.77,-4.888 l -3.099,-5.646 c 0,0 -4.475,4.201 -10.671,4.201 -5.164,0 -8.812,-3.236 -8.812,-7.092 0,-10.052 23.545,-7.367 23.545,-23.134 0,-7.504 -5.783,-13.7 -15.422,-13.7 -10.326,0 -16.111,6.403 -16.111,6.403 z" />
          </g>
          <g
             transform="translate(83.5552,85.4697)"
             id="g32">
            <path
               inkscape:connector-curvature="0"
               id="path34"
               style="fill:#231f20;fill-opacity:1;fill-rule:nonzero;stroke:none"
               d="m 0,0 v -33.877 c 1.974,0.246 3.84,0.526 5.581,0.832 V 0.848 C 3.553,0.595 1.694,0.31 0,0 m 0,9.993 c 1.824,0.291 3.691,0.536 5.581,0.742 v 4.223 L 10.975,17.211 2.908,31.513 -5.394,17.253 0,14.963 Z m 0,-53.806 v -13.182 h 5.581 v 13.932 C 3.74,-43.359 1.87,-43.606 0,-43.813 m 2.791,94.182 c -35.371,0 -64.146,-28.776 -64.146,-64.146 0,-35.369 28.775,-64.145 64.146,-64.145 35.369,0 64.145,28.776 64.145,64.145 0,35.37 -28.776,64.146 -64.145,64.146 m 0,-5.581 c 32.292,0 58.564,-26.272 58.564,-58.565 0,-32.293 -26.272,-58.565 -58.564,-58.565 -32.293,0 -58.565,26.272 -58.565,58.565 0,32.293 26.272,58.565 58.565,58.565 M 353.388,26.01 h 6.817 v -42.686 h 21.754 v -5.922 h -28.571 z m -28.293,-6.678 c 0,0 -1.101,-4.406 -1.928,-6.886 l -5.439,-15.422 h 14.733 l -5.369,15.422 c -0.827,2.48 -1.859,6.886 -1.859,6.886 z m 9.157,-27.953 h -18.313 l -4.82,-13.977 h -7.023 l 17.487,48.608 h 7.161 l 17.487,-48.608 h -7.09 z M 290.123,26.01 h 6.816 v -48.607 h -6.816 z m -30.429,-5.922 h -16.66 v 5.922 h 40.137 V 20.088 H 266.51 v -42.686 h -6.816 z M 221.763,2.67 c 5.301,0 8.605,3.373 8.605,8.813 0,3.58 -1.376,6.127 -3.854,7.504 -1.308,0.688 -2.893,1.101 -6.679,1.101 h -7.848 V 2.67 Z M 205.17,26.01 h 14.872 c 5.094,0 7.229,-0.413 9.088,-1.101 4.956,-1.86 8.192,-6.749 8.192,-13.151 0,-6.196 -3.441,-11.428 -8.743,-13.15 v -0.137 c 0,0 0.551,-0.62 1.446,-2.203 l 10.326,-18.866 h -7.71 l -10.258,19.347 h -10.396 v -19.347 h -6.817 z m -39.447,0 H 193.95 V 20.088 H 172.539 V 4.873 h 17.419 v -5.921 h -17.419 v -15.628 h 22.582 v -5.922 h -29.398 z m -52.114,0 h 6.747 l 21.619,-31.602 c 1.789,-2.616 4.061,-7.022 4.061,-7.022 h 0.138 c 0,0 -0.482,4.337 -0.482,7.022 V 26.01 h 6.816 V -22.598 H 145.83 L 124.143,8.935 c -1.79,2.685 -4.062,7.092 -4.062,7.092 h -0.138 c 0,0 0.482,-4.337 0.482,-7.092 v -31.533 h -6.816 z m -20.033,0 h 6.816 v -48.607 h -6.816 z" />
          </g>
          <g
             transform="translate(182.0854,29.7109)"
             id="g36">
            <path
               inkscape:connector-curvature="0"
               id="path38"
               style="fill:#231f20;fill-opacity:1;fill-rule:nonzero;stroke:none"
               d="M 0,0 C 2.337,0 3.74,2.365 3.74,4.428 V 4.95 H 3.052 C 1.073,4.95 -2.612,4.785 -2.612,2.228 -2.612,1.128 -1.732,0 0,0 M 3.025,6.874 H 3.74 v 0.275 c 0,2.283 -1.32,3.052 -3.053,3.052 -1.374,0 -2.776,-0.55 -3.904,-1.347 l -1.072,1.953 c 1.127,0.934 3.244,1.649 5.197,1.649 3.491,0 5.499,-1.925 5.499,-5.444 V -1.787 H 3.905 v 1.402 c 0,0.633 0.082,1.1 0.082,1.1 H 3.932 C 3.135,-0.88 1.43,-2.117 -0.632,-2.117 c -2.42,0 -4.647,1.513 -4.647,4.125 0,4.372 5.417,4.866 8.304,4.866" />
          </g>
          <g
             transform="translate(192.3711,41.8369)"
             id="g40">
            <path
               inkscape:connector-curvature="0"
               id="path42"
               style="fill:#231f20;fill-opacity:1;fill-rule:nonzero;stroke:none"
               d="m 0,0 h 2.667 v -8.304 c 0,-1.925 0.413,-3.465 2.612,-3.465 2.86,0 4.537,2.503 4.537,5.252 V 0 h 2.64 V -13.913 H 9.871 v 1.925 c 0,0.55 0.11,1.017 0.11,1.017 H 9.926 C 9.321,-12.346 7.479,-14.243 4.757,-14.243 1.622,-14.243 0,-12.593 0,-8.908 Z" />
          </g>
          <g
             transform="translate(210.1631,39.5273)"
             id="g44">
            <path
               inkscape:connector-curvature="0"
               id="path46"
               style="fill:#231f20;fill-opacity:1;fill-rule:nonzero;stroke:none"
               d="m 0,0 h -1.815 v 2.173 h 1.87 V 6.132 H 2.667 V 2.173 H 6.021 V 0 H 2.667 v -6.214 c 0,-2.777 1.952,-3.135 2.97,-3.135 0.192,0 0.357,0 0.632,0.055 v -2.364 C 6.049,-11.686 5.747,-11.741 5.334,-11.741 3.547,-11.741 0,-11.163 0,-6.517 Z" />
          </g>
          <g
             transform="translate(225.6997,29.9043)"
             id="g48">
            <path
               inkscape:connector-curvature="0"
               id="path50"
               style="fill:#231f20;fill-opacity:1;fill-rule:nonzero;stroke:none"
               d="M 0,0 C 2.612,0 4.785,2.089 4.785,5.004 4.785,7.891 2.612,9.953 0,9.953 -2.64,9.953 -4.784,7.891 -4.784,5.004 -4.784,2.089 -2.64,0 0,0 m -0.027,12.263 c 4.152,0 7.506,-3.052 7.506,-7.259 0,-4.234 -3.354,-7.315 -7.479,-7.315 -4.152,0 -7.506,3.081 -7.506,7.315 0,4.207 3.354,7.259 7.479,7.259" />
          </g>
          <g
             transform="translate(236.4805,41.8369)"
             id="g52">
            <path
               inkscape:connector-curvature="0"
               id="path54"
               style="fill:#231f20;fill-opacity:1;fill-rule:nonzero;stroke:none"
               d="m 0,0 h 2.585 v -1.896 c 0,-0.579 -0.083,-1.045 -0.083,-1.045 h 0.056 c 0.522,1.209 2.227,3.271 5.279,3.271 3.272,0 4.757,-1.787 4.757,-5.334 v -8.909 H 9.926 v 8.304 c 0,1.953 -0.384,3.492 -2.612,3.492 -2.722,0 -4.647,-2.255 -4.647,-5.114 v -6.682 H 0 Z" />
          </g>
          <g
             transform="translate(259.7441,29.9043)"
             id="g56">
            <path
               inkscape:connector-curvature="0"
               id="path58"
               style="fill:#231f20;fill-opacity:1;fill-rule:nonzero;stroke:none"
               d="M 0,0 C 2.612,0 4.785,2.089 4.785,5.004 4.785,7.891 2.612,9.953 0,9.953 -2.64,9.953 -4.784,7.891 -4.784,5.004 -4.784,2.089 -2.64,0 0,0 m -0.027,12.263 c 4.152,0 7.506,-3.052 7.506,-7.259 0,-4.234 -3.354,-7.315 -7.479,-7.315 -4.152,0 -7.506,3.081 -7.506,7.315 0,4.207 3.354,7.259 7.479,7.259" />
          </g>
          <g
             transform="translate(270.5254,41.8369)"
             id="g60">
            <path
               inkscape:connector-curvature="0"
               id="path62"
               style="fill:#231f20;fill-opacity:1;fill-rule:nonzero;stroke:none"
               d="m 0,0 h 2.585 v -1.896 c 0,-0.579 -0.083,-1.045 -0.083,-1.045 h 0.056 c 0.659,1.622 2.639,3.271 4.838,3.271 2.338,0 3.685,-1.072 4.153,-3.162 h 0.055 c 0.77,1.622 2.694,3.162 4.949,3.162 3.162,0 4.592,-1.787 4.592,-5.334 v -8.909 h -2.667 v 8.332 c 0,1.952 -0.385,3.491 -2.447,3.491 -2.585,0 -4.125,-2.667 -4.125,-5.334 v -6.489 H 9.239 v 8.332 c 0,1.814 -0.275,3.491 -2.392,3.491 -2.64,0 -4.18,-2.749 -4.18,-5.334 v -6.489 H 0 Z" />
          </g>
          <g
             transform="translate(302.3413,29.9043)"
             id="g64">
            <path
               inkscape:connector-curvature="0"
               id="path66"
               style="fill:#231f20;fill-opacity:1;fill-rule:nonzero;stroke:none"
               d="M 0,0 C 2.612,0 4.785,2.089 4.785,5.004 4.785,7.891 2.612,9.953 0,9.953 -2.64,9.953 -4.784,7.891 -4.784,5.004 -4.784,2.089 -2.64,0 0,0 m -0.027,12.263 c 4.152,0 7.506,-3.052 7.506,-7.259 0,-4.234 -3.354,-7.315 -7.479,-7.315 -4.152,0 -7.506,3.081 -7.506,7.315 0,4.207 3.354,7.259 7.479,7.259" />
          </g>
          <g
             transform="translate(312.9575,41.8369)"
             id="g68">
            <path
               inkscape:connector-curvature="0"
               id="path70"
               style="fill:#231f20;fill-opacity:1;fill-rule:nonzero;stroke:none"
               d="m 0,0 h 2.667 v -8.304 c 0,-1.925 0.413,-3.465 2.612,-3.465 2.86,0 4.537,2.503 4.537,5.252 V 0 h 2.64 V -13.913 H 9.871 v 1.925 c 0,0.55 0.11,1.017 0.11,1.017 H 9.926 C 9.321,-12.346 7.479,-14.243 4.757,-14.243 1.622,-14.243 0,-12.593 0,-8.908 Z" />
          </g>
          <g
             transform="translate(330.2544,31.4434)"
             id="g72">
            <path
               inkscape:connector-curvature="0"
               id="path74"
               style="fill:#231f20;fill-opacity:1;fill-rule:nonzero;stroke:none"
               d="m 0,0 c 1.045,-1.018 2.64,-1.622 4.097,-1.622 1.403,0 2.365,0.66 2.365,1.814 0,2.668 -7.149,1.953 -7.149,6.517 0,2.64 2.282,4.015 5.004,4.015 1.595,0 3.3,-0.44 4.51,-1.54 L 7.754,7.26 C 6.929,8.029 5.472,8.497 4.235,8.497 2.887,8.497 1.87,7.946 1.87,6.765 1.87,4.042 9.046,4.84 9.046,0.248 c 0,-2.365 -2.034,-4.098 -5.004,-4.098 -1.87,0 -3.932,0.633 -5.307,2.036 z" />
          </g>
          <g
             transform="translate(349.5039,41.8369)"
             id="g76">
            <path
               inkscape:connector-curvature="0"
               id="path78"
               style="fill:#231f20;fill-opacity:1;fill-rule:nonzero;stroke:none"
               d="m 0,0 h 2.585 v -1.896 c 0,-0.579 -0.083,-1.045 -0.083,-1.045 h 0.056 c 0.522,1.209 2.227,3.271 5.279,3.271 3.272,0 4.757,-1.787 4.757,-5.334 v -8.909 H 9.926 v 8.304 c 0,1.953 -0.384,3.492 -2.612,3.492 -2.722,0 -4.647,-2.255 -4.647,-5.114 v -6.682 H 0 Z" />
          </g>
          <g
             transform="translate(370.2939,29.7109)"
             id="g80">
            <path
               inkscape:connector-curvature="0"
               id="path82"
               style="fill:#231f20;fill-opacity:1;fill-rule:nonzero;stroke:none"
               d="M 0,0 C 2.337,0 3.739,2.365 3.739,4.428 V 4.95 H 3.052 C 1.072,4.95 -2.612,4.785 -2.612,2.228 -2.612,1.128 -1.732,0 0,0 m 3.024,6.874 h 0.715 v 0.275 c 0,2.283 -1.319,3.052 -3.052,3.052 -1.374,0 -2.777,-0.55 -3.904,-1.347 l -1.072,1.953 c 1.127,0.934 3.244,1.649 5.196,1.649 3.492,0 5.499,-1.925 5.499,-5.444 V -1.787 H 3.904 v 1.402 c 0,0.633 0.083,1.1 0.083,1.1 H 3.932 C 3.135,-0.88 1.43,-2.117 -0.633,-2.117 c -2.419,0 -4.646,1.513 -4.646,4.125 0,4.372 5.417,4.866 8.303,4.866" />
          </g>
          <g
             transform="translate(378.4072,41.8369)"
             id="g84">
            <path
               inkscape:connector-curvature="0"
               id="path86"
               style="fill:#231f20;fill-opacity:1;fill-rule:nonzero;stroke:none"
               d="m 0,0 h 2.832 l 3.382,-9.403 c 0.247,-0.77 0.495,-1.898 0.495,-1.898 h 0.055 c 0,0 0.219,1.128 0.467,1.898 L 10.613,0 h 2.805 L 8.276,-13.913 H 5.224 Z" />
          </g>
          <path
             inkscape:connector-curvature="0"
             id="path88"
             style="fill:#231f20;fill-opacity:1;fill-rule:nonzero;stroke:none"
             d="m 395.099,41.837 h 2.668 V 27.924 h -2.668 z m -0.055,5.5 h 2.75 v -2.695 h -2.75 z" />
          <g
             transform="translate(407.3086,30.3984)"
             id="g90">
            <path
               inkscape:connector-curvature="0"
               id="path92"
               style="fill:#231f20;fill-opacity:1;fill-rule:nonzero;stroke:none"
               d="m 0,0 c 1.924,0 3.684,1.155 3.684,4.785 0,3.629 -1.76,4.674 -3.932,4.674 -2.392,0 -3.794,-1.76 -3.794,-4.592 C -4.042,1.98 -2.503,0 0,0 m -0.771,-5.938 c 2.42,0 4.4,1.099 4.4,3.876 v 1.127 c 0,0.441 0.083,0.88 0.083,0.88 H 3.656 C 2.832,-1.43 1.484,-2.31 -0.522,-2.31 c -3.877,0 -6.215,3.108 -6.215,7.095 0,4.014 2.2,6.984 6.077,6.984 1.732,0 3.519,-0.632 4.399,-2.118 h 0.082 c 0,0 -0.082,0.165 -0.082,0.413 v 1.374 H 6.296 V -1.896 c 0,-4.593 -3.492,-6.353 -7.012,-6.353 -1.677,0 -3.382,0.468 -4.757,1.155 l 0.88,2.09 c 1.101,-0.55 2.476,-0.934 3.822,-0.934" />
          </g>
          <g
             transform="translate(421.9375,29.7109)"
             id="g94">
            <path
               inkscape:connector-curvature="0"
               id="path96"
               style="fill:#231f20;fill-opacity:1;fill-rule:nonzero;stroke:none"
               d="M 0,0 C 2.338,0 3.74,2.365 3.74,4.428 V 4.95 H 3.053 C 1.072,4.95 -2.611,4.785 -2.611,2.228 -2.611,1.128 -1.731,0 0,0 M 3.025,6.874 H 3.74 v 0.275 c 0,2.283 -1.32,3.052 -3.053,3.052 -1.374,0 -2.776,-0.55 -3.904,-1.347 l -1.072,1.953 c 1.127,0.934 3.244,1.649 5.197,1.649 3.491,0 5.499,-1.925 5.499,-5.444 V -1.787 H 3.905 v 1.402 c 0,0.633 0.082,1.1 0.082,1.1 H 3.933 C 3.135,-0.88 1.431,-2.117 -0.632,-2.117 c -2.42,0 -4.647,1.513 -4.647,4.125 0,4.372 5.417,4.866 8.304,4.866" />
          </g>
          <g
             transform="translate(432.9658,39.5273)"
             id="g98">
            <path
               inkscape:connector-curvature="0"
               id="path100"
               style="fill:#231f20;fill-opacity:1;fill-rule:nonzero;stroke:none"
               d="M 0,0 H -1.814 V 2.173 H 0.055 V 6.132 H 2.667 V 2.173 H 6.021 V 0 H 2.667 v -6.214 c 0,-2.777 1.952,-3.135 2.97,-3.135 0.192,0 0.357,0 0.633,0.055 v -2.364 C 6.049,-11.686 5.747,-11.741 5.334,-11.741 3.547,-11.741 0,-11.163 0,-6.517 Z" />
          </g>
          <path
             inkscape:connector-curvature="0"
             id="path102"
             style="fill:#231f20;fill-opacity:1;fill-rule:nonzero;stroke:none"
             d="m 442.618,41.837 h 2.667 V 27.924 h -2.667 z m -0.056,5.5 h 2.75 v -2.695 h -2.75 z" />
          <g
             transform="translate(456.0645,29.9043)"
             id="g104">
            <path
               inkscape:connector-curvature="0"
               id="path106"
               style="fill:#231f20;fill-opacity:1;fill-rule:nonzero;stroke:none"
               d="M 0,0 C 2.612,0 4.784,2.089 4.784,5.004 4.784,7.891 2.612,9.953 0,9.953 -2.64,9.953 -4.784,7.891 -4.784,5.004 -4.784,2.089 -2.64,0 0,0 m -0.027,12.263 c 4.152,0 7.506,-3.052 7.506,-7.259 0,-4.234 -3.354,-7.315 -7.479,-7.315 -4.151,0 -7.506,3.081 -7.506,7.315 0,4.207 3.355,7.259 7.479,7.259" />
          </g>
          <g
             transform="translate(466.8457,41.8369)"
             id="g108">
            <path
               inkscape:connector-curvature="0"
               id="path110"
               style="fill:#231f20;fill-opacity:1;fill-rule:nonzero;stroke:none"
               d="m 0,0 h 2.584 v -1.896 c 0,-0.579 -0.082,-1.045 -0.082,-1.045 h 0.055 c 0.522,1.209 2.227,3.271 5.279,3.271 3.272,0 4.757,-1.787 4.757,-5.334 v -8.909 H 9.926 v 8.304 c 0,1.953 -0.385,3.492 -2.613,3.492 -2.721,0 -4.646,-2.255 -4.646,-5.114 v -6.682 H 0 Z" />
          </g>
          <g
             transform="translate(490.5498,31.4434)"
             id="g112">
            <path
               inkscape:connector-curvature="0"
               id="path114"
               style="fill:#231f20;fill-opacity:1;fill-rule:nonzero;stroke:none"
               d="m 0,0 c 1.045,-1.018 2.64,-1.622 4.097,-1.622 1.402,0 2.365,0.66 2.365,1.814 0,2.668 -7.149,1.953 -7.149,6.517 0,2.64 2.282,4.015 5.004,4.015 1.595,0 3.299,-0.44 4.509,-1.54 L 7.754,7.26 C 6.93,8.029 5.472,8.497 4.234,8.497 2.888,8.497 1.87,7.946 1.87,6.765 1.87,4.042 9.047,4.84 9.047,0.248 c 0,-2.365 -2.035,-4.098 -5.005,-4.098 -1.869,0 -3.932,0.633 -5.307,2.036 z" />
          </g>
          <g
             transform="translate(509.4414,29.9043)"
             id="g116">
            <path
               inkscape:connector-curvature="0"
               id="path118"
               style="fill:#231f20;fill-opacity:1;fill-rule:nonzero;stroke:none"
               d="M 0,0 C 2.612,0 4.784,2.089 4.784,5.004 4.784,7.891 2.612,9.953 0,9.953 -2.64,9.953 -4.784,7.891 -4.784,5.004 -4.784,2.089 -2.64,0 0,0 m -0.027,12.263 c 4.152,0 7.506,-3.052 7.506,-7.259 0,-4.234 -3.354,-7.315 -7.479,-7.315 -4.151,0 -7.506,3.081 -7.506,7.315 0,4.207 3.355,7.259 7.479,7.259" />
          </g>
          <g
             transform="translate(520.2227,47.3369)"
             id="g120">
            <path
               inkscape:connector-curvature="0"
               id="path122"
               style="fill:#231f20;fill-opacity:1;fill-rule:nonzero;stroke:none"
               d="m 0,0 h 2.64 v -15.151 c 0,-1.65 0.687,-1.98 1.511,-1.98 0.111,0 0.303,0 0.468,0.027 v -2.364 c -0.192,-0.027 -0.495,-0.083 -0.88,-0.083 -1.54,0 -3.739,0.441 -3.739,3.96 z" />
          </g>
          <g
             transform="translate(527.4824,41.8369)"
             id="g124">
            <path
               inkscape:connector-curvature="0"
               id="path126"
               style="fill:#231f20;fill-opacity:1;fill-rule:nonzero;stroke:none"
               d="m 0,0 h 2.667 v -8.304 c 0,-1.925 0.412,-3.465 2.612,-3.465 2.86,0 4.537,2.503 4.537,5.252 V 0 h 2.64 V -13.913 H 9.871 v 1.925 c 0,0.55 0.11,1.017 0.11,1.017 H 9.926 C 9.321,-12.346 7.479,-14.243 4.757,-14.243 1.622,-14.243 0,-12.593 0,-8.908 Z" />
          </g>
          <g
             transform="translate(544.7246,39.5273)"
             id="g128">
            <path
               inkscape:connector-curvature="0"
               id="path130"
               style="fill:#231f20;fill-opacity:1;fill-rule:nonzero;stroke:none"
               d="M 0,0 H -1.814 V 2.173 H 0.055 V 6.132 H 2.667 V 2.173 H 6.021 V 0 H 2.667 v -6.214 c 0,-2.777 1.952,-3.135 2.97,-3.135 0.192,0 0.357,0 0.633,0.055 v -2.364 C 6.049,-11.686 5.747,-11.741 5.334,-11.741 3.547,-11.741 0,-11.163 0,-6.517 Z" />
          </g>
          <path
             inkscape:connector-curvature="0"
             id="path132"
             style="fill:#231f20;fill-opacity:1;fill-rule:nonzero;stroke:none"
             d="m 554.377,41.837 h 2.667 V 27.924 h -2.667 z m -0.056,5.5 h 2.75 v -2.695 h -2.75 z" />
          <g
             transform="translate(567.8232,29.9043)"
             id="g134">
            <path
               inkscape:connector-curvature="0"
               id="path136"
               style="fill:#231f20;fill-opacity:1;fill-rule:nonzero;stroke:none"
               d="M 0,0 C 2.612,0 4.784,2.089 4.784,5.004 4.784,7.891 2.612,9.953 0,9.953 -2.64,9.953 -4.784,7.891 -4.784,5.004 -4.784,2.089 -2.64,0 0,0 m -0.027,12.263 c 4.152,0 7.506,-3.052 7.506,-7.259 0,-4.234 -3.354,-7.315 -7.479,-7.315 -4.151,0 -7.506,3.081 -7.506,7.315 0,4.207 3.355,7.259 7.479,7.259" />
          </g>
          <g
             transform="translate(578.6045,41.8369)"
             id="g138">
            <path
               inkscape:connector-curvature="0"
               id="path140"
               style="fill:#231f20;fill-opacity:1;fill-rule:nonzero;stroke:none"
               d="m 0,0 h 2.584 v -1.896 c 0,-0.579 -0.082,-1.045 -0.082,-1.045 h 0.055 c 0.522,1.209 2.227,3.271 5.279,3.271 3.272,0 4.757,-1.787 4.757,-5.334 v -8.909 H 9.926 v 8.304 c 0,1.953 -0.385,3.492 -2.613,3.492 -2.721,0 -4.646,-2.255 -4.646,-5.114 v -6.682 H 0 Z" />
          </g>
          <g
             transform="translate(595.3506,31.4434)"
             id="g142">
            <path
               inkscape:connector-curvature="0"
               id="path144"
               style="fill:#231f20;fill-opacity:1;fill-rule:nonzero;stroke:none"
               d="m 0,0 c 1.045,-1.018 2.64,-1.622 4.097,-1.622 1.402,0 2.365,0.66 2.365,1.814 0,2.668 -7.149,1.953 -7.149,6.517 0,2.64 2.282,4.015 5.004,4.015 1.595,0 3.299,-0.44 4.509,-1.54 L 7.754,7.26 C 6.93,8.029 5.472,8.497 4.234,8.497 2.888,8.497 1.87,7.946 1.87,6.765 1.87,4.042 9.047,4.84 9.047,0.248 c 0,-2.365 -2.035,-4.098 -5.005,-4.098 -1.869,0 -3.932,0.633 -5.307,2.036 z" />
          </g>
        </g>
      </g>
    </g>
  </g>
</svg>
