<svg width="1152" height="134" xmlns="http://www.w3.org/2000/svg" xmlns:xlink="http://www.w3.org/1999/xlink" overflow="hidden"><defs><clipPath id="clip0"><path d="M0 0 1152 0 1152 134 0 134Z" fill-rule="evenodd" clip-rule="evenodd"/></clipPath></defs><g clip-path="url(#clip0)"><rect x="0" y="0" width="1149.14" height="134" fill="#FFFFFF" transform="scale(1.00249 1)"/><rect x="0" y="0" width="81.7965" height="28.0001" fill="#F2F2F2" transform="matrix(1.00249 0 -0 1 791 104)"/><text font-family="Calibri,Calibri_MSFontService,sans-serif" font-weight="400" font-size="16" transform="matrix(1 0 0 0.997519 823.82 123)">20</text><rect x="0" y="0" width="80.799" height="28.0001" fill="#F2F2F2" transform="matrix(1.00249 0 -0 1 872 104)"/><text font-family="Calibri,Calibri_MSFontService,sans-serif" font-weight="400" font-size="16" transform="matrix(1 0 0 0.997519 904.167 123)">2<tspan x="8.16669" y="0">1</tspan></text><rect x="0" y="0" width="80.799" height="28.0001" fill="#F2F2F2" transform="matrix(1.00249 0 -0 1 953 104)"/><text font-family="Calibri,Calibri_MSFontService,sans-serif" font-weight="400" font-size="16" transform="matrix(1 0 0 0.997519 985.558 123)">2<tspan x="8.16663" y="0">2</tspan></text><rect x="0" y="0" width="81.7965" height="28.0001" fill="#F2F2F2" transform="matrix(1.00249 0 -0 1 1034 104)"/><text font-family="Calibri,Calibri_MSFontService,sans-serif" font-weight="400" font-size="16" transform="matrix(1 0 0 0.997519 1066.95 123)">2<tspan x="8.16663" y="0">3</tspan></text><rect x="0" y="0" width="326.189" height="28.0001" fill="#F2F2F2" transform="matrix(1.00249 0 -0 1 791 1.99996)"/><text font-family="Calibri,Calibri_MSFontService,sans-serif" font-weight="400" font-size="16" transform="matrix(1 0 0 0.997519 901.916 21)">PACKET FOOTER</text><rect x="0" y="0" width="80.799" height="72" stroke="#000000" stroke-width="2.99256" stroke-miterlimit="8" fill="#FFFFFF" transform="matrix(1.00249 0 -0 1 872.5 31.5)"/><text font-family="Calibri,Calibri_MSFontService,sans-serif" font-weight="400" font-size="16" transform="matrix(1 0 0 0.997519 888.32 63)">CKSUM<tspan x="19.68" y="19.0473">B</tspan></text><rect x="0" y="0" width="80.799" height="72" stroke="#000000" stroke-width="2.99256" stroke-miterlimit="8" fill="#FFFFFF" transform="matrix(1.00249 0 -0 1 954.5 31.5)"/><text font-family="Calibri,Calibri_MSFontService,sans-serif" font-weight="400" font-size="16" transform="matrix(1 0 0 0.997519 970.365 63)">CKSUM<tspan x="19.76" y="19.0473">C</tspan></text><rect x="0" y="0" width="81.7965" height="72" stroke="#000000" stroke-width="2.99256" stroke-miterlimit="8" fill="#FFFFFF" transform="matrix(1.00249 0 -0 1 790.5 31.5)"/><text font-family="Calibri,Calibri_MSFontService,sans-serif" font-weight="400" font-size="16" transform="matrix(1 0 0 0.997519 806.929 63)">CKSUM<tspan x="19.3467" y="19.0473">A</tspan></text><rect x="0" y="0" width="80.799" height="72" stroke="#000000" stroke-width="2.99256" stroke-miterlimit="8" fill="#FFFFFF" transform="matrix(1.00249 0 -0 1 1035.5 31.5)"/><text font-family="Calibri,Calibri_MSFontService,sans-serif" font-weight="400" font-size="16" transform="matrix(1 0 0 0.997519 1058.96 53)">STOP<tspan x="-1.44666" y="19.0473">CHAR</tspan><tspan x="-3.19336" y="38.0945">(0xFE)</tspan></text><rect x="0" y="0" width="81.7965" height="28.0001" fill="#F2F2F2" transform="matrix(1.00249 0 -0 1 140 104)"/><text font-family="Calibri,Calibri_MSFontService,sans-serif" font-weight="400" font-size="16" transform="matrix(1 0 0 0.997519 177.019 123)">0</text><rect x="0" y="0" width="80.799" height="28.0001" fill="#F2F2F2" transform="matrix(1.00249 0 -0 1 221 104)"/><text font-family="Calibri,Calibri_MSFontService,sans-serif" font-weight="400" font-size="16" transform="matrix(1 0 0 0.997519 257.366 123)">1</text><rect x="0" y="0" width="104.739" height="28.0001" fill="#F2F2F2" transform="matrix(1.00249 0 -0 1 34 104)"/><text font-family="Calibri,Calibri_MSFontService,sans-serif" font-weight="400" font-size="16" transform="matrix(1 0 0 0.997519 52.552 123)">Byte Index</text><rect x="0" y="0" width="81.7965" height="28.0001" fill="#F2F2F2" transform="matrix(1.00249 0 -0 1 302 104)"/><text font-family="Calibri,Calibri_MSFontService,sans-serif" font-weight="400" font-size="16" transform="matrix(1 0 0 0.997519 338.758 123)">2</text><rect x="0" y="0" width="80.799" height="28.0001" fill="#F2F2F2" transform="matrix(1.00249 0 -0 1 384 104)"/><text font-family="Calibri,Calibri_MSFontService,sans-serif" font-weight="400" font-size="16" transform="matrix(1 0 0 0.997519 420.149 123)">3</text><rect x="0" y="0" width="325.191" height="28.0001" fill="#F2F2F2" transform="matrix(1.00249 0 -0 1 139 1.99996)"/><text font-family="Calibri,Calibri_MSFontService,sans-serif" font-weight="400" font-size="16" transform="matrix(1 0 0 0.997519 248.888 21)">PACKET HEADER</text><rect x="0" y="0" width="81.7965" height="72" stroke="#000000" stroke-width="2.99256" stroke-miterlimit="8" fill="#FFFFFF" transform="matrix(1.00249 0 -0 1 139.5 31.5)"/><text font-family="Calibri,Calibri_MSFontService,sans-serif" font-weight="400" font-size="16" transform="matrix(1 0 0 0.997519 160.315 53)">START<tspan x="1.49333" y="19.0473">CHAR</tspan><tspan x="-0.00666809" y="38.0945">(0xFF)</tspan></text><rect x="0" y="0" width="80.799" height="72" stroke="#000000" stroke-width="2.99256" stroke-miterlimit="8" fill="#FFFFFF" transform="matrix(1.00249 0 -0 1 221.5 31.5)"/><path d="M0-14.9628 17.7891-14.9628 17.7891 3.99007 6.34205e-07 3.99007Z" fill="#FFFF00" fill-rule="evenodd" transform="matrix(1.00249 0 -0 1 252.53 91.0526)"/><text font-family="Calibri,Calibri_MSFontService,sans-serif" font-weight="400" font-size="16" transform="matrix(1 0 0 0.997519 237.017 53)">PACKET <tspan x="15.3467" y="19.0473">ID:</tspan><tspan x="15.5133" y="38.0945">(3)</tspan></text><rect x="0" y="0" width="81.7965" height="72" stroke="#000000" stroke-width="2.99256" stroke-miterlimit="8" fill="#FFFFFF" transform="matrix(1.00249 0 -0 1 302.5 31.5)"/><text font-family="Calibri,Calibri_MSFontService,sans-serif" font-weight="400" font-size="16" transform="matrix(1 0 0 0.997519 318.408 63)">PACKET<tspan x="-7.58002" y="19.0473">COUNTER</tspan></text><rect x="0" y="0" width="80.799" height="72" stroke="#000000" stroke-width="2.99256" stroke-miterlimit="8" fill="#FFFFFF" transform="matrix(1.00249 0 -0 1 384.5 31.5)"/><text font-family="Calibri,Calibri_MSFontService,sans-serif" font-weight="400" font-size="16" transform="matrix(1 0 0 0.997519 390.919 72)">RESERVED</text><rect x="0" y="0" width="243.395" height="28" fill="#D9D9D9" transform="matrix(1.00249 0 -0 1 465 1.00003)"/><text font-family="Calibri,Calibri_MSFontService,sans-serif" font-weight="400" font-size="16" transform="matrix(1 0 0 0.997519 541.54 20)">DATA HEADER</text><rect x="0" y="0" width="81.7965" height="28.0001" fill="#FFFFFF" transform="matrix(1.00249 0 -0 1 709 104)"/><text font-family="Calibri,Calibri_MSFontService,sans-serif" font-weight="400" font-size="16" transform="matrix(1 0 0 0.997519 731.455 123)">16:19</text><rect x="0" y="0" width="80.799" height="28.0001" fill="#D9D9D9" transform="matrix(1.00249 0 -0 1 465 103)"/><text font-family="Calibri,Calibri_MSFontService,sans-serif" font-weight="400" font-size="16" transform="matrix(1 0 0 0.997519 495.115 122)">4:7</text><rect x="0" y="0" width="81.7965" height="28.0001" fill="#D9D9D9" transform="matrix(1.00249 0 -0 1 546 103)"/><text font-family="Calibri,Calibri_MSFontService,sans-serif" font-weight="400" font-size="16" transform="matrix(1 0 0 0.997519 572.423 122)">8:11</text><rect x="0" y="0" width="80.799" height="28.0001" fill="#D9D9D9" transform="matrix(1.00249 0 -0 1 628 103)"/><text font-family="Calibri,Calibri_MSFontService,sans-serif" font-weight="400" font-size="16" transform="matrix(1 0 0 0.997519 649.73 122)">12:15</text><rect x="0" y="0" width="80.799" height="72" stroke="#000000" stroke-width="2.99256" stroke-miterlimit="8" fill="#FFFFFF" transform="matrix(1.00249 0 -0 1 465.5 31.5)"/><text font-family="Calibri,Calibri_MSFontService,sans-serif" font-weight="400" font-size="16" transform="matrix(1 0 0 0.997519 475.318 53)">DATA SET <tspan x="23.2133" y="19.0473">ID</tspan><tspan x="13.4666" y="38.0945">(DID)</tspan></text><rect x="0" y="0" width="81.7965" height="72" stroke="#000000" stroke-width="2.99256" stroke-miterlimit="8" fill="#FFFFFF" transform="matrix(1.00249 0 -0 1 546.5 31.5)"/><text font-family="Calibri,Calibri_MSFontService,sans-serif" font-weight="400" font-size="16" transform="matrix(1 0 0 0.997519 570.043 63)">DATA<tspan x="3.46667" y="19.0473">SIZE</tspan></text><rect x="0" y="0" width="80.799" height="72" stroke="#000000" stroke-width="2.99256" stroke-miterlimit="8" fill="#FFFFFF" transform="matrix(1.00249 0 -0 1 628.5 31.5)"/><text font-family="Calibri,Calibri_MSFontService,sans-serif" font-weight="400" font-size="16" transform="matrix(1 0 0 0.997519 651.43 63)">DATA<tspan x="-7.2533" y="19.0473">OFFSET</tspan></text><rect x="0" y="0" width="80.799" height="72" stroke="#000000" stroke-width="2.99256" stroke-miterlimit="8" fill="#FFFFFF" transform="matrix(1.00249 0 -0 1 709.5 31.5)"/><text font-family="Calibri,Calibri_MSFontService,sans-serif" font-weight="400" font-size="14" transform="matrix(1 0 0 0.997519 714.371 52)">BROADCAST<tspan font-size="16" x="10.5867" y="19.0473">PERIOD</tspan><tspan font-size="16" x="20.8333" y="38.0945">(</tspan><tspan font-size="16" x="25.6666" y="38.0945">ms</tspan><tspan font-size="16" x="44.8333" y="38.0945">)</tspan></text></g></svg>