<svg width="1152" height="134" xmlns="http://www.w3.org/2000/svg" xmlns:xlink="http://www.w3.org/1999/xlink" overflow="hidden"><defs><clipPath id="clip0"><path d="M0 0 1152 0 1152 134 0 134Z" fill-rule="evenodd" clip-rule="evenodd"/></clipPath></defs><g clip-path="url(#clip0)"><rect x="0" y="0" width="1149.14" height="134" fill="#FFFFFF" transform="scale(1.00249 1)"/><rect x="0" y="0" width="81.7965" height="28.0001" fill="#F2F2F2" transform="matrix(1.00249 0 -0 1 817 104)"/><text font-family="Calibri,Calibri_MSFontService,sans-serif" font-weight="400" font-size="16" transform="matrix(1 0 0 0.997519 846.416 123)">N<tspan x="10.3333" y="0">-</tspan><tspan x="15.1666" y="0">3</tspan></text><rect x="0" y="0" width="80.799" height="28.0001" fill="#F2F2F2" transform="matrix(1.00249 0 -0 1 898 104)"/><text font-family="Calibri,Calibri_MSFontService,sans-serif" font-weight="400" font-size="16" transform="matrix(1 0 0 0.997519 926.763 123)">N<tspan x="10.3334" y="0">-</tspan><tspan x="15.1667" y="0">2</tspan></text><rect x="0" y="0" width="81.7965" height="28.0001" fill="#F2F2F2" transform="matrix(1.00249 0 -0 1 979 104)"/><text font-family="Calibri,Calibri_MSFontService,sans-serif" font-weight="400" font-size="16" transform="matrix(1 0 0 0.997519 1008.15 123)">N<tspan x="10.3334" y="0">-</tspan><tspan x="15.1667" y="0">1</tspan></text><rect x="0" y="0" width="80.799" height="28.0001" fill="#F2F2F2" transform="matrix(1.00249 0 -0 1 1061 104)"/><text font-family="Calibri,Calibri_MSFontService,sans-serif" font-weight="400" font-size="16" transform="matrix(1 0 0 0.997519 1096.05 123)">N</text><rect x="0" y="0" width="326.189" height="28.0001" fill="#F2F2F2" transform="matrix(1.00249 0 -0 1 817 1.99996)"/><text font-family="Calibri,Calibri_MSFontService,sans-serif" font-weight="400" font-size="16" transform="matrix(1 0 0 0.997519 928.012 21)">PACKET FOOTER</text><rect x="0" y="0" width="80.799" height="72" stroke="#000000" stroke-width="2.99256" stroke-miterlimit="8" fill="#FFFFFF" transform="matrix(1.00249 0 -0 1 898.5 31.5)"/><text font-family="Calibri,Calibri_MSFontService,sans-serif" font-weight="400" font-size="16" transform="matrix(1 0 0 0.997519 914.417 63)">CKSUM<tspan x="19.68" y="19.0473">B</tspan></text><rect x="0" y="0" width="80.799" height="72" stroke="#000000" stroke-width="2.99256" stroke-miterlimit="8" fill="#FFFFFF" transform="matrix(1.00249 0 -0 1 980.5 31.5)"/><text font-family="Calibri,Calibri_MSFontService,sans-serif" font-weight="400" font-size="16" transform="matrix(1 0 0 0.997519 996.461 63)">CKSUM<tspan x="19.76" y="19.0473">C</tspan></text><rect x="0" y="0" width="81.7965" height="72" stroke="#000000" stroke-width="2.99256" stroke-miterlimit="8" fill="#FFFFFF" transform="matrix(1.00249 0 -0 1 816.5 31.5)"/><text font-family="Calibri,Calibri_MSFontService,sans-serif" font-weight="400" font-size="16" transform="matrix(1 0 0 0.997519 833.026 63)">CKSUM<tspan x="19.3467" y="19.0473">A</tspan></text><rect x="0" y="0" width="81.7965" height="72" stroke="#000000" stroke-width="2.99256" stroke-miterlimit="8" fill="#FFFFFF" transform="matrix(1.00249 0 -0 1 1061.5 31.5)"/><text font-family="Calibri,Calibri_MSFontService,sans-serif" font-weight="400" font-size="16" transform="matrix(1 0 0 0.997519 1085.06 53)">STOP<tspan x="-1.44666" y="19.0473">CHAR</tspan><tspan x="-3.19336" y="38.0945">(0xFE)</tspan></text><rect x="0" y="0" width="80.799" height="28.0001" fill="#F2F2F2" transform="matrix(1.00249 0 -0 1 112 104)"/><text font-family="Calibri,Calibri_MSFontService,sans-serif" font-weight="400" font-size="16" transform="matrix(1 0 0 0.997519 148.125 123)">0</text><rect x="0" y="0" width="80.799" height="28.0001" fill="#F2F2F2" transform="matrix(1.00249 0 -0 1 192 104)"/><text font-family="Calibri,Calibri_MSFontService,sans-serif" font-weight="400" font-size="16" transform="matrix(1 0 0 0.997519 228.472 123)">1</text><rect x="0" y="0" width="104.739" height="28.0001" fill="#F2F2F2" transform="matrix(1.00249 0 -0 1 5 104)"/><text font-family="Calibri,Calibri_MSFontService,sans-serif" font-weight="400" font-size="16" transform="matrix(1 0 0 0.997519 23.6582 123)">Byte Index</text><rect x="0" y="0" width="81.7965" height="28.0001" fill="#F2F2F2" transform="matrix(1.00249 0 -0 1 273 104)"/><text font-family="Calibri,Calibri_MSFontService,sans-serif" font-weight="400" font-size="16" transform="matrix(1 0 0 0.997519 309.864 123)">2</text><rect x="0" y="0" width="80.799" height="28.0001" fill="#F2F2F2" transform="matrix(1.00249 0 -0 1 355 104)"/><text font-family="Calibri,Calibri_MSFontService,sans-serif" font-weight="400" font-size="16" transform="matrix(1 0 0 0.997519 391.255 123)">3</text><rect x="0" y="0" width="325.191" height="28.0001" fill="#F2F2F2" transform="matrix(1.00249 0 -0 1 110 1.99996)"/><text font-family="Calibri,Calibri_MSFontService,sans-serif" font-weight="400" font-size="16" transform="matrix(1 0 0 0.997519 219.994 21)">PACKET HEADER</text><rect x="0" y="0" width="81.7965" height="72" stroke="#000000" stroke-width="2.99256" stroke-miterlimit="8" fill="#FFFFFF" transform="matrix(1.00249 0 -0 1 110.5 31.5)"/><text font-family="Calibri,Calibri_MSFontService,sans-serif" font-weight="400" font-size="16" transform="matrix(1 0 0 0.997519 131.422 53)">START<tspan x="1.49333" y="19.0473">CHAR</tspan><tspan x="-0.00666809" y="38.0945">(0xFF)</tspan></text><rect x="0" y="0" width="80.799" height="72" stroke="#000000" stroke-width="2.99256" stroke-miterlimit="8" fill="#FFFFFF" transform="matrix(1.00249 0 -0 1 192.5 31.5)"/><path d="M0-14.9628 17.7891-14.9628 17.7891 3.99007 6.34205e-07 3.99007Z" fill="#FFFF00" fill-rule="evenodd" transform="matrix(1.00249 0 -0 1 223.636 91.0526)"/><text font-family="Calibri,Calibri_MSFontService,sans-serif" font-weight="400" font-size="16" transform="matrix(1 0 0 0.997519 208.123 53)">PACKET <tspan x="15.3467" y="19.0473">ID:</tspan><tspan x="15.5133" y="38.0945">(5)</tspan></text><rect x="0" y="0" width="81.7965" height="72" stroke="#000000" stroke-width="2.99256" stroke-miterlimit="8" fill="#FFFFFF" transform="matrix(1.00249 0 -0 1 273.5 31.5)"/><text font-family="Calibri,Calibri_MSFontService,sans-serif" font-weight="400" font-size="16" transform="matrix(1 0 0 0.997519 289.514 63)">PACKET<tspan x="-7.58002" y="19.0473">COUNTER</tspan></text><rect x="0" y="0" width="80.799" height="72" stroke="#000000" stroke-width="2.99256" stroke-miterlimit="8" fill="#FFFFFF" transform="matrix(1.00249 0 -0 1 355.5 31.5)"/><text font-family="Calibri,Calibri_MSFontService,sans-serif" font-weight="400" font-size="16" transform="matrix(1 0 0 0.997519 362.025 72)">RESERVED</text><rect x="0" y="0" width="243.395" height="28" fill="#D9D9D9" transform="matrix(1.00249 0 -0 1 436 1.00003)"/><text font-family="Calibri,Calibri_MSFontService,sans-serif" font-weight="400" font-size="16" transform="matrix(1 0 0 0.997519 512.558 20)">DATA HEADER</text><rect x="0" y="0" width="135.663" height="28.0001" fill="#FFFFFF" transform="matrix(1.00249 0 -0 1 680 104)"/><text font-family="Calibri,Calibri_MSFontService,sans-serif" font-weight="400" font-size="16" transform="matrix(1 0 0 0.997519 726.354 123)">16:N<tspan x="31" y="0">-</tspan><tspan x="35.8334" y="0">4</tspan></text><rect x="0" y="0" width="80.799" height="28.0001" fill="#D9D9D9" transform="matrix(1.00249 0 -0 1 436 103)"/><text font-family="Calibri,Calibri_MSFontService,sans-serif" font-weight="400" font-size="16" transform="matrix(1 0 0 0.997519 466.221 122)">4:7</text><rect x="0" y="0" width="81.7965" height="28.0001" fill="#D9D9D9" transform="matrix(1.00249 0 -0 1 517 103)"/><text font-family="Calibri,Calibri_MSFontService,sans-serif" font-weight="400" font-size="16" transform="matrix(1 0 0 0.997519 543.529 122)">8:11</text><rect x="0" y="0" width="80.799" height="28.0001" fill="#D9D9D9" transform="matrix(1.00249 0 -0 1 599 103)"/><text font-family="Calibri,Calibri_MSFontService,sans-serif" font-weight="400" font-size="16" transform="matrix(1 0 0 0.997519 620.836 122)">12:15</text><rect x="0" y="0" width="80.799" height="72" stroke="#000000" stroke-width="2.99256" stroke-miterlimit="8" fill="#FFFFFF" transform="matrix(1.00249 0 -0 1 436.5 31.5)"/><text font-family="Calibri,Calibri_MSFontService,sans-serif" font-weight="400" font-size="16" transform="matrix(1 0 0 0.997519 446.424 63)">DATA SET<tspan x="23.2133" y="19.0473">ID</tspan></text><rect x="0" y="0" width="81.7965" height="72" stroke="#000000" stroke-width="2.99256" stroke-miterlimit="8" fill="#FFFFFF" transform="matrix(1.00249 0 -0 1 517.5 31.5)"/><text font-family="Calibri,Calibri_MSFontService,sans-serif" font-weight="400" font-size="16" transform="matrix(1 0 0 0.997519 541.149 63)">DATA<tspan x="3.46667" y="19.0473">SIZE</tspan></text><rect x="0" y="0" width="80.799" height="72" stroke="#000000" stroke-width="2.99256" stroke-miterlimit="8" fill="#FFFFFF" transform="matrix(1.00249 0 -0 1 599.5 31.5)"/><text font-family="Calibri,Calibri_MSFontService,sans-serif" font-weight="400" font-size="16" transform="matrix(1 0 0 0.997519 622.537 63)">DATA<tspan x="-7.2533" y="19.0473">OFFSET</tspan></text><rect x="0" y="0" width="135.663" height="73" stroke="#000000" stroke-miterlimit="8" fill="#FFFFFF" transform="matrix(1.00249 0 -0 1 680.5 31.5)"/><text font-family="Calibri,Calibri_MSFontService,sans-serif" font-weight="400" font-size="16" transform="matrix(1 0 0 0.997519 731.158 72)">DATA</text><path d="M12.8163 0C13.0435 9.10427 13.2707 18.2086 11.4528 27.3129 9.63493 36.4172 3.81761 47.0114 1.90883 54.6259 5.7257e-05 62.2404 0.31812 69.1928 0 73" stroke="#000000" stroke-width="2.99256" stroke-miterlimit="8" fill="#FFFFFF" fill-rule="evenodd" transform="matrix(1.00249 0 -0 1 693.5 31.5)"/><path d="M0 0 26.2761 0.000104726" stroke="#000000" stroke-width="2.99256" stroke-miterlimit="8" fill="#FFFFFF" fill-rule="evenodd" transform="matrix(1.00249 0 -0 1 680.5 31.5)"/><path d="M0 0 13.138 0.000104726" stroke="#000000" stroke-width="2.99256" stroke-miterlimit="8" fill="#FFFFFF" fill-rule="evenodd" transform="matrix(1.00249 0 -0 1 680.5 104.5)"/><path d="M13.8022 0C14.0468 9.10427 14.2916 18.2086 12.3338 27.3129 10.3761 36.4172 4.11127 47.0114 2.05567 54.6259 6.16614e-05 62.2404 0.342591 69.1928 0 73" stroke="#000000" stroke-width="2.99256" stroke-miterlimit="8" fill="#FFFFFF" fill-rule="evenodd" transform="matrix(1.00249 0 -0 1 782.5 31.5)"/><path d="M0 0 19.8671 0.195105" stroke="#000000" stroke-width="2.99256" stroke-miterlimit="8" fill="#FFFFFF" fill-rule="evenodd" transform="matrix(1.00249 0 -0 1 795.5 31.5)"/><path d="M0 0 32.8382 0.000104726" stroke="#000000" stroke-width="2.99256" stroke-miterlimit="8" fill="#FFFFFF" fill-rule="evenodd" transform="matrix(1.00249 0 -0 1 782.5 104.5)"/></g></svg>