<?xml version="1.0" encoding="UTF-8" standalone="no"?>
<svg
   xmlns:dc="http://purl.org/dc/elements/1.1/"
   xmlns:cc="http://creativecommons.org/ns#"
   xmlns:rdf="http://www.w3.org/1999/02/22-rdf-syntax-ns#"
   xmlns:svg="http://www.w3.org/2000/svg"
   xmlns="http://www.w3.org/2000/svg"
   xmlns:sodipodi="http://sodipodi.sourceforge.net/DTD/sodipodi-0.dtd"
   xmlns:inkscape="http://www.inkscape.org/namespaces/inkscape"
   id="Layer_1"
   data-name="Layer 1"
   viewBox="0 0 128.3 128.33999"
   version="1.1"
   inkscape:version="0.91 r13725"
   sodipodi:docname="Logo_Circle_white.svg"
   width="128.3"
   height="128.34">
  <metadata
     id="metadata15">
    <rdf:RDF>
      <cc:Work
         rdf:about="">
        <dc:format>image/svg+xml</dc:format>
        <dc:type
           rdf:resource="http://purl.org/dc/dcmitype/StillImage" />
        <dc:title>Logo_Circle_white</dc:title>
      </cc:Work>
    </rdf:RDF>
  </metadata>
  <sodipodi:namedview
     pagecolor="#ffffff"
     bordercolor="#666666"
     borderopacity="1"
     objecttolerance="10"
     gridtolerance="10"
     guidetolerance="10"
     inkscape:pageopacity="0"
     inkscape:pageshadow="2"
     inkscape:window-width="1192"
     inkscape:window-height="738"
     id="namedview13"
     showgrid="false"
     fit-margin-top="0"
     fit-margin-left="0"
     fit-margin-right="0"
     fit-margin-bottom="0"
     inkscape:zoom="1.6270251"
     inkscape:cx="64.185004"
     inkscape:cy="64.194998"
     inkscape:window-x="351"
     inkscape:window-y="101"
     inkscape:window-maximized="0"
     inkscape:current-layer="Layer_1" />
  <defs
     id="defs3">
    <style
       id="style5">.cls-1{fill:#fff;}</style>
  </defs>
  <title
     id="title7">Logo_Circle_white</title>
  <path
     class="cls-1"
     d="M 88.25,78.62 C 88.25,71.43 79,68.2 68.37,65.21 l 0,5.8 c 7.06,2 14.3,4.61 14.3,7.6 0,4.15 -15,8.6 -37.6,8.86 l 0,5.58 C 57.55,92.87 88.25,91.2 88.25,78.62 Z m -8.32,-32.17 2.28,5.45 14.3,-8.07 -14.26,-8.3 -2.27,5.33 c -13.83,0.43 -39.83,2.76 -39.83,14.38 0,7.19 9.23,10.38 19.85,13.38 l 0,-5.78 c -7,-2 -14.28,-4.61 -14.28,-7.6 0,-3.94 13.53,-8.14 34.21,-8.79 z"
     id="path9"
     inkscape:connector-curvature="0"
     style="fill:#ffffff" />
  <path
     class="cls-1"
     d="M 64.15,5.62 A 58.56,58.56 0 1 1 5.62,64.15 58.63,58.63 0 0 1 64.15,5.62 m 0,-5.58 A 64.15,64.15 0 1 0 128.3,64.19 64.22,64.22 0 0 0 64.15,0 Z m -2.79,94.18 0,13.18 5.58,0 0,-13.97 c -1.79,0.3 -3.67,0.55 -5.54,0.75 z m 0,-53.81 c 1.82,-0.29 3.69,-0.54 5.58,-0.74 l 0,-4.26 5.39,-2.25 -8.07,-14.3 -8.26,14.26 5.39,2.29 z m 0,10 0,33.84 c 2,-0.25 3.84,-0.53 5.58,-0.83 l 0,-33.9 q -3.01,0.38 -5.54,0.85 z"
     id="path11"
     inkscape:connector-curvature="0"
     style="fill:#ffffff" />
</svg>
